<?xml version="1.0" encoding="UTF-8" standalone="no"?>
<!-- Generator: IcoMoon.io -->

<svg
   xmlns:dc="http://purl.org/dc/elements/1.1/"
   xmlns:cc="http://creativecommons.org/ns#"
   xmlns:rdf="http://www.w3.org/1999/02/22-rdf-syntax-ns#"
   xmlns:svg="http://www.w3.org/2000/svg"
   xmlns="http://www.w3.org/2000/svg"
   xmlns:sodipodi="http://sodipodi.sourceforge.net/DTD/sodipodi-0.dtd"
   xmlns:inkscape="http://www.inkscape.org/namespaces/inkscape"
   version="1.1"
   id="Layer_1"
   x="0px"
   y="0px"
   width="48px"
   height="48px"
   viewBox="0 0 48 48"
   enable-background="new 0 0 16 16"
   xml:space="preserve"
   fill="#000000"
   inkscape:version="0.48.4 r9939"
   sodipodi:docname="restore-swapped-window.svg"><metadata
     id="metadata9"><rdf:RDF><cc:Work
         rdf:about=""><dc:format>image/svg+xml</dc:format><dc:type
           rdf:resource="http://purl.org/dc/dcmitype/StillImage" /></cc:Work></rdf:RDF></metadata><defs
     id="defs7" /><sodipodi:namedview
     pagecolor="#ffffff"
     bordercolor="#666666"
     borderopacity="1"
     objecttolerance="10"
     gridtolerance="10"
     guidetolerance="10"
     inkscape:pageopacity="0"
     inkscape:pageshadow="2"
     inkscape:window-width="640"
     inkscape:window-height="480"
     id="namedview5"
     showgrid="false"
     inkscape:zoom="4.9166667"
     inkscape:cx="24"
     inkscape:cy="24"
     inkscape:window-x="0"
     inkscape:window-y="24"
     inkscape:window-maximized="0"
     inkscape:current-layer="Layer_1" /><path
     d="M 39.00,48.00l-6.00,0.00 l0.00,-6.00 l6.00,0.00 c 1.659,0.00, 3.00-1.341, 3.00-3.00L42.00,12.00 L6.00,12.00 l0.00,27.00 c0.00,1.659, 1.341,3.00, 3.00,3.00l6.00,0.00 l0.00,6.00 L9.00,48.00 c-4.971,0.00-9.00-4.032-9.00-9.00L0.00,9.00 c0.00-4.971, 4.029-9.00, 9.00-9.00l30.00,0.00 c 4.971,0.00, 9.00,4.029, 9.00,9.00l0.00,30.00 C 48.00,43.968, 43.971,48.00, 39.00,48.00z M 9.00,3.00C 7.341,3.00, 6.00,4.344, 6.00,6.00 s 1.341,3.00, 3.00,3.00s 3.00-1.344, 3.00-3.00S 10.659,3.00, 9.00,3.00z M 21.879,24.876C 22.464,24.291, 23.232,23.997, 24.00,23.997s 1.536,0.294, 2.121,0.879l 6.00,6.00 c 0.855,0.858, 1.113,2.148, 0.651,3.273C 32.31,35.268, 31.212,36.00, 30.00,36.00L27.00,36.00 l0.00,9.00 c0.00,1.659-1.341,3.00-3.00,3.00c-1.656,0.00-3.00-1.341-3.00-3.00l0.00,-9.00 L18.00,36.00 c-1.212,0.00-2.31-0.732-2.772-1.851c-0.462-1.122-0.207-2.415, 0.651-3.273L 21.879,24.876z"
     id="path3"
     style="fill:#ececec" /></svg>