<svg width="43" height="31" xmlns="http://www.w3.org/2000/svg" xmlns:xlink="http://www.w3.org/1999/xlink">
 <defs>
  <linearGradient x1="284.8" y1="-441.23" x2="288.9" gradientUnits="userSpaceOnUse" xlink:href="#imagebot_91" y2="-436.83" id="imagebot_7"/>
  <linearGradient x1="286.67" y1="-439.48" x2="289.77" gradientUnits="userSpaceOnUse" xlink:href="#imagebot_91" y2="-436.71" id="imagebot_11"/>
  <linearGradient x1="0.14923" y1="0.32417" x2="0.46" xlink:href="#imagebot_91" y2="0.75667" id="imagebot_14"/>
  <linearGradient x1="285.94" y1="-439.94" x2="289.39" gradientUnits="userSpaceOnUse" xlink:href="#imagebot_91" y2="-436.44" id="imagebot_18"/>
  <linearGradient x1="286.51" y1="-441.29" x2="289.85" gradientUnits="userSpaceOnUse" xlink:href="#imagebot_91" y2="-436.14" id="imagebot_22"/>
  <linearGradient x1="287.52" y1="-439.75" x2="289.68" gradientUnits="userSpaceOnUse" xlink:href="#imagebot_91" y2="-436.32" id="imagebot_28"/>
  <linearGradient x1="0.14889" y1="0.23235" x2="0.66778" xlink:href="#imagebot_91" y2="0.76647" id="imagebot_31"/>
  <linearGradient id="imagebot_91">
   <stop stop-color="#ffffff" offset="0" id="imagebot_93"/>
   <stop stop-color="#ffffff" stop-opacity="0" offset="1" id="imagebot_92"/>
  </linearGradient>
  <linearGradient x1="-156.29" y1="-100.53" x2="-153.1" gradientUnits="userSpaceOnUse" y2="-96.545" id="imagebot_57">
   <stop stop-color="#ffffff" offset="0" id="imagebot_90"/>
   <stop stop-color="#ffffff" stop-opacity="0" offset="1" id="imagebot_89"/>
  </linearGradient>
  <linearGradient x1="238" y1="-388.47" x2="245.65" gradientUnits="userSpaceOnUse" y2="-382.65" id="imagebot_61">
   <stop stop-color="#ffffff" offset="0" id="imagebot_88"/>
   <stop stop-color="#ffffff" stop-opacity="0" offset="1" id="imagebot_87"/>
  </linearGradient>
  <linearGradient x1="230.88" y1="-390.44" x2="235.26" gradientUnits="userSpaceOnUse" y2="-386.96" id="imagebot_65">
   <stop stop-color="#ffffff" offset="0" id="imagebot_86"/>
   <stop stop-color="#ffffff" stop-opacity="0" offset="1" id="imagebot_85"/>
  </linearGradient>
  <linearGradient x1="246.74" y1="-391.31" x2="252.7" gradientUnits="userSpaceOnUse" y2="-385.35" id="imagebot_69">
   <stop stop-color="#ffffff" offset="0" id="imagebot_84"/>
   <stop stop-color="#ffffff" stop-opacity="0" offset="1" id="imagebot_83"/>
  </linearGradient>
  <linearGradient x1="240.07" y1="-393.41" x2="245.83" gradientUnits="userSpaceOnUse" y2="-388.55" id="imagebot_73">
   <stop stop-color="#ffffff" offset="0" id="imagebot_82"/>
   <stop stop-color="#ffffff" stop-opacity="0" offset="1" id="imagebot_81"/>
  </linearGradient>
  <linearGradient x1="0.04555" y1="0.20391" x2="1.57342" y2="0.94" id="imagebot_77">
   <stop stop-color="#ffffff" offset="0" id="imagebot_80"/>
   <stop stop-color="#ffffff" stop-opacity="0" offset="1" id="imagebot_79"/>
  </linearGradient>
 </defs>
 <g label="Layer 1" id="imagebot_2">
  <path opacity="0.22" transform="matrix(1 0 0 1 -289.5 296)" label="Layer 1" fill="#888a85" d="M311.5,-296C308.73,-296 306.39,-294.43 305.1,-292.19C304.15,-292.66 303.13,-293 302,-293C298.14,-293 295,-289.86 295,-286S298.14,-279 302,-279C304.42,-279 306.43,-280.32 307.69,-282.19C308.82,-281.5 310.08,-281 311.5,-281C312.42,-281 313.26,-281.23 314.07,-281.53C314.58,-280.66 315.24,-279.95 316.07,-279.38C316.06,-279.24 316,-279.13 316,-279C316,-275.14 319.14,-272 323,-272C326.87,-272 330,-275.14 330,-279C330,-281.37 328.74,-283.36 326.94,-284.62C326.95,-284.76 327,-284.87 327,-285C327,-288.86 323.87,-292 320,-292C319.38,-292 318.83,-291.78 318.25,-291.62C317.06,-294.18 314.51,-296 311.5,-296z" id="imagebot_78"/>
  <path transform="translate(0 0.107374) matrix(1 0 0 1 -289.5 296)" label="Layer 1" fill="url(#imagebot_77)" d="M311.5,-295C308.72,-295 306.37,-293.24 305.44,-290.78C304.45,-291.49 303.31,-292 302,-292C298.69,-292 296,-289.31 296,-286S298.69,-280 302,-280C304.43,-280 306.5,-281.46 307.44,-283.53C308.56,-282.61 309.94,-282 311.5,-282C312.58,-282 313.55,-282.32 314.44,-282.78C314.84,-281.78 315.54,-280.99 316.38,-280.34C316.2,-279.75 316,-279.15 316,-278.5C316,-274.91 318.91,-272 322.5,-272S329,-274.91 329,-278.5C329,-280.86 327.67,-282.83 325.78,-283.97C325.85,-284.32 326,-284.63 326,-285C326,-288.31 323.31,-291 320,-291C319.15,-291 318.33,-290.82 317.6,-290.5C316.74,-293.09 314.38,-295 311.5,-295z" id="imagebot_76"/>
  <path label="Layer 1" fill="#c4c5c2" transform="matrix(0.96445 0 0 0.96445 -200.209 387.526)" d="M248.55,-383.67A6.7396,6.7396 0 1 1 235.07,-383.67A6.7396,6.7396 0 1 1 248.55,-383.67z" id="imagebot_75"/>
  <g label="Layer 1" transform="matrix(1 0 0 1 -220.497 398)" id="imagebot_71">
   <path fill="#c4c5c2" transform="matrix(.88263 0 0 .88263 27.181 -46.891)" d="M250.18,-389.3A6.2314,6.2314 0 1 1 237.72,-389.3A6.2314,6.2314 0 1 1 250.18,-389.3z" id="imagebot_74"/>
   <path fill="url(#imagebot_73)" transform="matrix(.88263 0 0 .88263 27.181 -46.891)" d="M250.18,-389.3A6.2314,6.2314 0 1 1 237.72,-389.3A6.2314,6.2314 0 1 1 250.18,-389.3z" id="imagebot_72"/>
  </g>
  <g opacity="0.04" label="Layer 1" transform="matrix(1 0 0 1 -220.497 398)" id="imagebot_67">
   <path fill="#c4c5c2" transform="matrix(.91173 0 0 .91173 21.454 -34.766)" d="M257.25,-385.79A6.0325,6.0325 0 1 1 245.19,-385.79A6.0325,6.0325 0 1 1 257.25,-385.79z" id="imagebot_70"/>
   <path fill="url(#imagebot_69)" transform="matrix(.91173 0 0 .91173 21.454 -34.766)" d="M257.25,-385.79A6.0325,6.0325 0 1 1 245.19,-385.79A6.0325,6.0325 0 1 1 257.25,-385.79z" id="imagebot_68"/>
  </g>
  <g opacity="0" label="Layer 1" transform="matrix(1 0 0 1 -220.497 398)" id="imagebot_63">
   <path fill="#c4c5c2" transform="matrix(1.1428 0 0 1.1428 -33.768 55.277)" d="M237.81,-387.89A4.3752,4.3752 0 1 1 229.06,-387.89A4.3752,4.3752 0 1 1 237.81,-387.89z" id="imagebot_66"/>
   <path fill="url(#imagebot_65)" transform="matrix(1.1428 0 0 1.1428 -33.768 55.277)" d="M237.81,-387.89A4.3752,4.3752 0 1 1 229.06,-387.89A4.3752,4.3752 0 1 1 237.81,-387.89z" id="imagebot_64"/>
  </g>
  <g label="Layer 1" transform="matrix(1 0 0 1 -220.497 398)" id="imagebot_59">
   <path fill="#c4c5c2" transform="matrix(1.0386 0 0 1.0386 -9.1509 14.49)" d="M248.55,-383.67A6.7396,6.7396 0 1 1 235.07,-383.67A6.7396,6.7396 0 1 1 248.55,-383.67z" id="imagebot_62"/>
   <path fill="url(#imagebot_61)" transform="matrix(1.0386 0 0 1.0386 -9.1509 14.49)" d="M248.55,-383.67A6.7396,6.7396 0 1 1 235.07,-383.67A6.7396,6.7396 0 1 1 248.55,-383.67z" id="imagebot_60"/>
  </g>
  <g label="Layer 1" transform="matrix(0.93503 0 0 0.93503 157.33 108.38)" id="imagebot_55">
   <path fill="#c4c5c2" transform="matrix(1.7377 0 0 1.7377 110.83 70.076)" d="M-151.94,-96.938A3.125,3.125 0 1 1 -158.19,-96.938A3.125,3.125 0 1 1 -151.94,-96.938z" id="imagebot_58"/>
   <path fill="url(#imagebot_57)" transform="matrix(1.7377 0 0 1.7377 110.89 70.014)" d="M-151.94,-96.938A3.125,3.125 0 1 1 -158.19,-96.938A3.125,3.125 0 1 1 -151.94,-96.938z" id="imagebot_56"/>
  </g>
  <g opacity="0.28" label="Layer 1" transform="matrix(1 0 0 1 -251.497 458)" id="imagebot_33">
   <path stroke="#888a85" stroke-miterlimit="2" fill="#c4c5c2" d="M280.5,-445.5C278.23,-445.5 276.39,-443.95 275.78,-441.88C275.09,-442.24 274.34,-442.5 273.5,-442.5C270.74,-442.5 268.5,-440.26 268.5,-437.5C268.5,-436.92 268.66,-436.39 268.84,-435.88C267.47,-435.1 266.5,-433.69 266.5,-432C266.5,-429.52 268.52,-427.5 271,-427.5L290,-427.5C292.48,-427.5 294.5,-429.52 294.5,-432C294.5,-433.69 293.53,-435.1 292.16,-435.88C292.34,-436.39 292.5,-436.92 292.5,-437.5C292.5,-440.26 290.26,-442.5 287.5,-442.5C286.66,-442.5 285.91,-442.24 285.22,-441.88C284.61,-443.95 282.77,-445.5 280.5,-445.5z" id="imagebot_54"/>
   <path fill="url(#imagebot_31)" d="M280.5,-445C278.31,-445 276.78,-443.66 276.1,-441.16C275.44,-441.5 274.56,-441.99 273.75,-441.99C271.03,-441.99 268.99,-440.05 268.99,-437.44C268.99,-436.9 269.26,-436.11 269.44,-435.62C268.11,-434.89 267,-433.73 267,-432.25C267,-429.9 268.55,-428 271.34,-428L289.66,-428C292.43,-428 294,-429.9 294,-432.25C294,-433.84 292.89,-434.92 291.56,-435.64C291.74,-436.13 292.03,-436.9 292.03,-437.44C292.03,-440.05 289.91,-442.01 287.25,-442.01C286.44,-442.01 285.61,-441.52 284.94,-441.18C284.29,-443.6 282.69,-445 280.5,-445z" id="imagebot_53"/>
   <g id="imagebot_50">
    <path fill="#c4c5c2" transform="matrix(1.0566 0 0 1.0566 -24.198 21.863)" d="M291.69,-437.59A3.3125,3.3125 0 1 1 285.06,-437.59A3.3125,3.3125 0 1 1 291.69,-437.59z" id="imagebot_52"/>
    <path fill="url(#imagebot_28)" transform="matrix(1.0566 0 0 1.0566 -24.198 21.863)" d="M291.69,-437.59A3.3125,3.3125 0 1 1 285.06,-437.59A3.3125,3.3125 0 1 1 291.69,-437.59z" id="imagebot_51"/>
   </g>
   <rect fill="#c4c5c2" x="271" y="-438" width="20" height="9" id="imagebot_49"/>
   <path fill="#c4c5c2" transform="matrix(.90566 0 0 .90566 9.8302 -35.689)" d="M291.69,-437.59A3.3125,3.3125 0 1 1 285.06,-437.59A3.3125,3.3125 0 1 1 291.69,-437.59z" id="imagebot_48"/>
   <g id="imagebot_45">
    <path fill="#c4c5c2" transform="matrix(1.0566 0 0 1.0566 -17.198 24.863)" d="M291.69,-437.59A3.3125,3.3125 0 1 1 285.06,-437.59A3.3125,3.3125 0 1 1 291.69,-437.59z" id="imagebot_47"/>
    <path fill="url(#imagebot_22)" transform="matrix(1.0566 0 0 1.0566 -17.198 24.863)" d="M291.69,-437.59A3.3125,3.3125 0 1 1 285.06,-437.59A3.3125,3.3125 0 1 1 291.69,-437.59z" id="imagebot_46"/>
   </g>
   <g id="imagebot_42">
    <path fill="#c4c5c2" transform="matrix(1.0566 0 0 1.0566 -31.198 24.863)" d="M291.69,-437.59A3.3125,3.3125 0 1 1 285.06,-437.59A3.3125,3.3125 0 1 1 291.69,-437.59z" id="imagebot_44"/>
    <path fill="url(#imagebot_18)" transform="matrix(1.0566 0 0 1.0566 -31.198 24.863)" d="M291.69,-437.59A3.3125,3.3125 0 1 1 285.06,-437.59A3.3125,3.3125 0 1 1 291.69,-437.59z" id="imagebot_43"/>
   </g>
   <g transform="translate(-1)" id="imagebot_39">
    <path fill="#c4c5c2" d="M280.47,-440.97C276.89,-440.97 274,-438.05 274,-434.47C274,-432.1 275.35,-430.13 277.25,-429L283.72,-429C285.62,-430.13 286.97,-432.13 286.97,-434.5C286.97,-438.08 284.05,-440.97 280.47,-440.97z" id="imagebot_41"/>
    <path fill="url(#imagebot_14)" d="M280.5,-441C276.91,-441 274,-438.09 274,-434.5C274,-432.12 275.34,-430.13 277.25,-429L283.75,-429C285.66,-430.13 287,-432.12 287,-434.5C287,-438.09 284.09,-441 280.5,-441z" id="imagebot_40"/>
   </g>
   <path fill="url(#imagebot_11)" transform="matrix(.90566 0 0 .90566 9.8303 -35.689)" d="M291.69,-437.59A3.3125,3.3125 0 1 1 285.06,-437.59A3.3125,3.3125 0 1 1 291.69,-437.59z" id="imagebot_38"/>
   <path fill-rule="evenodd" fill="#888a85" d="M292.96,-437.33C292.95,-434.65 289.69,-433.62 289.69,-433.62S292.04,-435.25 292.02,-437.33L292.96,-437.33z" id="imagebot_37"/>
   <g transform="matrix(1.1429 0 0 1.1429 -28.571 67)" id="imagebot_34">
    <path fill="#c4c5c2" transform="matrix(1.0566 0 0 1.0566 -31.198 24.863)" d="M291.69,-437.59A3.3125,3.3125 0 1 1 285.06,-437.59A3.3125,3.3125 0 1 1 291.69,-437.59z" id="imagebot_36"/>
    <path fill="url(#imagebot_7)" transform="matrix(1.0566 0 0 1.0566 -31.198 24.863)" d="M291.69,-437.59A3.3125,3.3125 0 1 1 285.06,-437.59A3.3125,3.3125 0 1 1 291.69,-437.59z" id="imagebot_35"/>
   </g>
  </g>
  <g opacity="0.25" label="Layer 1" transform="matrix(1 0 0 1 -266.5 454)" id="imagebot_4">
   <path stroke="#888a85" stroke-miterlimit="2" fill="#c4c5c2" d="M280.5,-445.5C278.23,-445.5 276.39,-443.95 275.78,-441.88C275.09,-442.24 274.34,-442.5 273.5,-442.5C270.74,-442.5 268.5,-440.26 268.5,-437.5C268.5,-436.92 268.66,-436.39 268.84,-435.88C267.47,-435.1 266.5,-433.69 266.5,-432C266.5,-429.52 268.52,-427.5 271,-427.5L290,-427.5C292.48,-427.5 294.5,-429.52 294.5,-432C294.5,-433.69 293.53,-435.1 292.16,-435.88C292.34,-436.39 292.5,-436.92 292.5,-437.5C292.5,-440.26 290.26,-442.5 287.5,-442.5C286.66,-442.5 285.91,-442.24 285.22,-441.88C284.61,-443.95 282.77,-445.5 280.5,-445.5z" id="imagebot_32"/>
   <path fill="url(#imagebot_31)" d="M280.5,-445C278.31,-445 276.78,-443.66 276.1,-441.16C275.44,-441.5 274.56,-441.99 273.75,-441.99C271.03,-441.99 268.99,-440.05 268.99,-437.44C268.99,-436.9 269.26,-436.11 269.44,-435.62C268.11,-434.89 267,-433.73 267,-432.25C267,-429.9 268.55,-428 271.34,-428L289.66,-428C292.43,-428 294,-429.9 294,-432.25C294,-433.84 292.89,-434.92 291.56,-435.64C291.74,-436.13 292.03,-436.9 292.03,-437.44C292.03,-440.05 289.91,-442.01 287.25,-442.01C286.44,-442.01 285.61,-441.52 284.94,-441.18C284.29,-443.6 282.69,-445 280.5,-445z" id="imagebot_30"/>
   <g id="imagebot_26">
    <path fill="#c4c5c2" transform="matrix(1.0566 0 0 1.0566 -24.198 21.863)" d="M291.69,-437.59A3.3125,3.3125 0 1 1 285.06,-437.59A3.3125,3.3125 0 1 1 291.69,-437.59z" id="imagebot_29"/>
    <path fill="url(#imagebot_28)" transform="matrix(1.0566 0 0 1.0566 -24.198 21.863)" d="M291.69,-437.59A3.3125,3.3125 0 1 1 285.06,-437.59A3.3125,3.3125 0 1 1 291.69,-437.59z" id="imagebot_27"/>
   </g>
   <rect fill="#c4c5c2" x="271" y="-438" width="20" height="9" id="imagebot_25"/>
   <path fill="#c4c5c2" transform="matrix(.90566 0 0 .90566 9.8302 -35.689)" d="M291.69,-437.59A3.3125,3.3125 0 1 1 285.06,-437.59A3.3125,3.3125 0 1 1 291.69,-437.59z" id="imagebot_24"/>
   <g id="imagebot_20">
    <path fill="#c4c5c2" transform="matrix(1.0566 0 0 1.0566 -17.198 24.863)" d="M291.69,-437.59A3.3125,3.3125 0 1 1 285.06,-437.59A3.3125,3.3125 0 1 1 291.69,-437.59z" id="imagebot_23"/>
    <path fill="url(#imagebot_22)" transform="matrix(1.0566 0 0 1.0566 -17.198 24.863)" d="M291.69,-437.59A3.3125,3.3125 0 1 1 285.06,-437.59A3.3125,3.3125 0 1 1 291.69,-437.59z" id="imagebot_21"/>
   </g>
   <g id="imagebot_16">
    <path fill="#c4c5c2" transform="matrix(1.0566 0 0 1.0566 -31.198 24.863)" d="M291.69,-437.59A3.3125,3.3125 0 1 1 285.06,-437.59A3.3125,3.3125 0 1 1 291.69,-437.59z" id="imagebot_19"/>
    <path fill="url(#imagebot_18)" transform="matrix(1.0566 0 0 1.0566 -31.198 24.863)" d="M291.69,-437.59A3.3125,3.3125 0 1 1 285.06,-437.59A3.3125,3.3125 0 1 1 291.69,-437.59z" id="imagebot_17"/>
   </g>
   <g transform="translate(-1)" id="imagebot_12">
    <path fill="#c4c5c2" d="M280.47,-440.97C276.89,-440.97 274,-438.05 274,-434.47C274,-432.1 275.35,-430.13 277.25,-429L283.72,-429C285.62,-430.13 286.97,-432.13 286.97,-434.5C286.97,-438.08 284.05,-440.97 280.47,-440.97z" id="imagebot_15"/>
    <path fill="url(#imagebot_14)" d="M280.5,-441C276.91,-441 274,-438.09 274,-434.5C274,-432.12 275.34,-430.13 277.25,-429L283.75,-429C285.66,-430.13 287,-432.12 287,-434.5C287,-438.09 284.09,-441 280.5,-441z" id="imagebot_13"/>
   </g>
   <path fill="url(#imagebot_11)" transform="matrix(.90566 0 0 .90566 9.8303 -35.689)" d="M291.69,-437.59A3.3125,3.3125 0 1 1 285.06,-437.59A3.3125,3.3125 0 1 1 291.69,-437.59z" id="imagebot_10"/>
   <path fill-rule="evenodd" fill="#888a85" d="M292.96,-437.33C292.95,-434.65 289.69,-433.62 289.69,-433.62S292.04,-435.25 292.02,-437.33L292.96,-437.33z" id="imagebot_9"/>
   <g transform="matrix(1.1429 0 0 1.1429 -28.571 67)" id="imagebot_5">
    <path fill="#c4c5c2" transform="matrix(1.0566 0 0 1.0566 -31.198 24.863)" d="M291.69,-437.59A3.3125,3.3125 0 1 1 285.06,-437.59A3.3125,3.3125 0 1 1 291.69,-437.59z" id="imagebot_8"/>
    <path fill="url(#imagebot_7)" transform="matrix(1.0566 0 0 1.0566 -31.198 24.863)" d="M291.69,-437.59A3.3125,3.3125 0 1 1 285.06,-437.59A3.3125,3.3125 0 1 1 291.69,-437.59z" id="imagebot_6"/>
   </g>
  </g>
  <title>Layer 1</title>
  <g opacity="0.16" id="imagebot_94" label="Layer 1" transform="translate(-5.26133 -4.83184) matrix(1 0 0 1 -246.743 451.101)">
   <path id="imagebot_95" stroke="#888a85" stroke-miterlimit="2" fill="#c4c5c2" d="M280.5,-445.5C278.23,-445.5 276.39,-443.95 275.78,-441.88C275.09,-442.24 274.34,-442.5 273.5,-442.5C270.74,-442.5 268.5,-440.26 268.5,-437.5C268.5,-436.92 268.66,-436.39 268.84,-435.88C267.47,-435.1 266.5,-433.69 266.5,-432C266.5,-429.52 268.52,-427.5 271,-427.5L290,-427.5C292.48,-427.5 294.5,-429.52 294.5,-432C294.5,-433.69 293.53,-435.1 292.16,-435.88C292.34,-436.39 292.5,-436.92 292.5,-437.5C292.5,-440.26 290.26,-442.5 287.5,-442.5C286.66,-442.5 285.91,-442.24 285.22,-441.88C284.61,-443.95 282.77,-445.5 280.5,-445.5z"/>
   <path id="imagebot_96" fill="url(#imagebot_31)" d="M280.5,-445C278.31,-445 276.78,-443.66 276.1,-441.16C275.44,-441.5 274.56,-441.99 273.75,-441.99C271.03,-441.99 268.99,-440.05 268.99,-437.44C268.99,-436.9 269.26,-436.11 269.44,-435.62C268.11,-434.89 267,-433.73 267,-432.25C267,-429.9 268.55,-428 271.34,-428L289.66,-428C292.43,-428 294,-429.9 294,-432.25C294,-433.84 292.89,-434.92 291.56,-435.64C291.74,-436.13 292.03,-436.9 292.03,-437.44C292.03,-440.05 289.91,-442.01 287.25,-442.01C286.44,-442.01 285.61,-441.52 284.94,-441.18C284.29,-443.6 282.69,-445 280.5,-445z"/>
   <g id="imagebot_97">
    <path id="imagebot_98" fill="#c4c5c2" transform="matrix(1.0566 0 0 1.0566 -24.198 21.863)" d="M291.69,-437.59A3.3125,3.3125 0 1 1 285.06,-437.59A3.3125,3.3125 0 1 1 291.69,-437.59z"/>
    <path id="imagebot_99" fill="url(#imagebot_28)" transform="matrix(1.0566 0 0 1.0566 -24.198 21.863)" d="M291.69,-437.59A3.3125,3.3125 0 1 1 285.06,-437.59A3.3125,3.3125 0 1 1 291.69,-437.59z"/>
   </g>
   <rect id="imagebot_100" fill="#c4c5c2" x="271" y="-438" width="20" height="9"/>
   <path id="imagebot_101" fill="#c4c5c2" transform="matrix(.90566 0 0 .90566 9.8302 -35.689)" d="M291.69,-437.59A3.3125,3.3125 0 1 1 285.06,-437.59A3.3125,3.3125 0 1 1 291.69,-437.59z"/>
   <g id="imagebot_102">
    <path id="imagebot_103" fill="#c4c5c2" transform="matrix(1.0566 0 0 1.0566 -17.198 24.863)" d="M291.69,-437.59A3.3125,3.3125 0 1 1 285.06,-437.59A3.3125,3.3125 0 1 1 291.69,-437.59z"/>
    <path id="imagebot_104" fill="url(#imagebot_22)" transform="matrix(1.0566 0 0 1.0566 -17.198 24.863)" d="M291.69,-437.59A3.3125,3.3125 0 1 1 285.06,-437.59A3.3125,3.3125 0 1 1 291.69,-437.59z"/>
   </g>
   <g id="imagebot_105">
    <path id="imagebot_106" fill="#c4c5c2" transform="matrix(1.0566 0 0 1.0566 -31.198 24.863)" d="M291.69,-437.59A3.3125,3.3125 0 1 1 285.06,-437.59A3.3125,3.3125 0 1 1 291.69,-437.59z"/>
    <path id="imagebot_107" fill="url(#imagebot_18)" transform="matrix(1.0566 0 0 1.0566 -31.198 24.863)" d="M291.69,-437.59A3.3125,3.3125 0 1 1 285.06,-437.59A3.3125,3.3125 0 1 1 291.69,-437.59z"/>
   </g>
   <g id="imagebot_108" transform="translate(-1)">
    <path id="imagebot_109" fill="#c4c5c2" d="M280.47,-440.97C276.89,-440.97 274,-438.05 274,-434.47C274,-432.1 275.35,-430.13 277.25,-429L283.72,-429C285.62,-430.13 286.97,-432.13 286.97,-434.5C286.97,-438.08 284.05,-440.97 280.47,-440.97z"/>
    <path id="imagebot_110" fill="url(#imagebot_14)" d="M280.5,-441C276.91,-441 274,-438.09 274,-434.5C274,-432.12 275.34,-430.13 277.25,-429L283.75,-429C285.66,-430.13 287,-432.12 287,-434.5C287,-438.09 284.09,-441 280.5,-441z"/>
   </g>
   <path id="imagebot_111" fill="url(#imagebot_11)" transform="matrix(.90566 0 0 .90566 9.8303 -35.689)" d="M291.69,-437.59A3.3125,3.3125 0 1 1 285.06,-437.59A3.3125,3.3125 0 1 1 291.69,-437.59z"/>
   <path id="imagebot_112" fill-rule="evenodd" fill="#888a85" d="M292.96,-437.33C292.95,-434.65 289.69,-433.62 289.69,-433.62S292.04,-435.25 292.02,-437.33L292.96,-437.33z"/>
   <g id="imagebot_113" transform="matrix(1.1429 0 0 1.1429 -28.571 67)">
    <path id="imagebot_114" fill="#c4c5c2" transform="matrix(1.0566 0 0 1.0566 -31.198 24.863)" d="M291.69,-437.59A3.3125,3.3125 0 1 1 285.06,-437.59A3.3125,3.3125 0 1 1 291.69,-437.59z"/>
    <path id="imagebot_115" fill="url(#imagebot_7)" transform="matrix(1.0566 0 0 1.0566 -31.198 24.863)" d="M291.69,-437.59A3.3125,3.3125 0 1 1 285.06,-437.59A3.3125,3.3125 0 1 1 291.69,-437.59z"/>
   </g>
  </g>
  <g opacity="0.26" id="imagebot_116" label="Layer 1" transform="translate(3.22123 3.22123) matrix(1 0 0 1 -266.5 454)">
   <path id="imagebot_117" stroke="#888a85" stroke-miterlimit="2" fill="#c4c5c2" d="M280.5,-445.5C278.23,-445.5 276.39,-443.95 275.78,-441.88C275.09,-442.24 274.34,-442.5 273.5,-442.5C270.74,-442.5 268.5,-440.26 268.5,-437.5C268.5,-436.92 268.66,-436.39 268.84,-435.88C267.47,-435.1 266.5,-433.69 266.5,-432C266.5,-429.52 268.52,-427.5 271,-427.5L290,-427.5C292.48,-427.5 294.5,-429.52 294.5,-432C294.5,-433.69 293.53,-435.1 292.16,-435.88C292.34,-436.39 292.5,-436.92 292.5,-437.5C292.5,-440.26 290.26,-442.5 287.5,-442.5C286.66,-442.5 285.91,-442.24 285.22,-441.88C284.61,-443.95 282.77,-445.5 280.5,-445.5z"/>
   <path id="imagebot_118" fill="url(#imagebot_31)" d="M280.5,-445C278.31,-445 276.78,-443.66 276.1,-441.16C275.44,-441.5 274.56,-441.99 273.75,-441.99C271.03,-441.99 268.99,-440.05 268.99,-437.44C268.99,-436.9 269.26,-436.11 269.44,-435.62C268.11,-434.89 267,-433.73 267,-432.25C267,-429.9 268.55,-428 271.34,-428L289.66,-428C292.43,-428 294,-429.9 294,-432.25C294,-433.84 292.89,-434.92 291.56,-435.64C291.74,-436.13 292.03,-436.9 292.03,-437.44C292.03,-440.05 289.91,-442.01 287.25,-442.01C286.44,-442.01 285.61,-441.52 284.94,-441.18C284.29,-443.6 282.69,-445 280.5,-445z"/>
   <g id="imagebot_119">
    <path id="imagebot_120" fill="#c4c5c2" transform="matrix(1.0566 0 0 1.0566 -24.198 21.863)" d="M291.69,-437.59A3.3125,3.3125 0 1 1 285.06,-437.59A3.3125,3.3125 0 1 1 291.69,-437.59z"/>
    <path id="imagebot_121" fill="url(#imagebot_28)" transform="matrix(1.0566 0 0 1.0566 -24.198 21.863)" d="M291.69,-437.59A3.3125,3.3125 0 1 1 285.06,-437.59A3.3125,3.3125 0 1 1 291.69,-437.59z"/>
   </g>
   <rect id="imagebot_122" fill="#c4c5c2" x="271" y="-438" width="20" height="9"/>
   <path id="imagebot_123" fill="#c4c5c2" transform="matrix(.90566 0 0 .90566 9.8302 -35.689)" d="M291.69,-437.59A3.3125,3.3125 0 1 1 285.06,-437.59A3.3125,3.3125 0 1 1 291.69,-437.59z"/>
   <g id="imagebot_124">
    <path id="imagebot_125" fill="#c4c5c2" transform="matrix(1.0566 0 0 1.0566 -17.198 24.863)" d="M291.69,-437.59A3.3125,3.3125 0 1 1 285.06,-437.59A3.3125,3.3125 0 1 1 291.69,-437.59z"/>
    <path id="imagebot_126" fill="url(#imagebot_22)" transform="matrix(1.0566 0 0 1.0566 -17.198 24.863)" d="M291.69,-437.59A3.3125,3.3125 0 1 1 285.06,-437.59A3.3125,3.3125 0 1 1 291.69,-437.59z"/>
   </g>
   <g id="imagebot_127">
    <path id="imagebot_128" fill="#c4c5c2" transform="matrix(1.0566 0 0 1.0566 -31.198 24.863)" d="M291.69,-437.59A3.3125,3.3125 0 1 1 285.06,-437.59A3.3125,3.3125 0 1 1 291.69,-437.59z"/>
    <path id="imagebot_129" fill="url(#imagebot_18)" transform="matrix(1.0566 0 0 1.0566 -31.198 24.863)" d="M291.69,-437.59A3.3125,3.3125 0 1 1 285.06,-437.59A3.3125,3.3125 0 1 1 291.69,-437.59z"/>
   </g>
   <g id="imagebot_130" transform="translate(-1)">
    <path id="imagebot_131" fill="#c4c5c2" d="M280.47,-440.97C276.89,-440.97 274,-438.05 274,-434.47C274,-432.1 275.35,-430.13 277.25,-429L283.72,-429C285.62,-430.13 286.97,-432.13 286.97,-434.5C286.97,-438.08 284.05,-440.97 280.47,-440.97z"/>
    <path id="imagebot_132" fill="url(#imagebot_14)" d="M280.5,-441C276.91,-441 274,-438.09 274,-434.5C274,-432.12 275.34,-430.13 277.25,-429L283.75,-429C285.66,-430.13 287,-432.12 287,-434.5C287,-438.09 284.09,-441 280.5,-441z"/>
   </g>
   <path id="imagebot_133" fill="url(#imagebot_11)" transform="matrix(.90566 0 0 .90566 9.8303 -35.689)" d="M291.69,-437.59A3.3125,3.3125 0 1 1 285.06,-437.59A3.3125,3.3125 0 1 1 291.69,-437.59z"/>
   <path id="imagebot_134" fill-rule="evenodd" fill="#888a85" d="M292.96,-437.33C292.95,-434.65 289.69,-433.62 289.69,-433.62S292.04,-435.25 292.02,-437.33L292.96,-437.33z"/>
   <g id="imagebot_135" transform="matrix(1.1429 0 0 1.1429 -28.571 67)">
    <path id="imagebot_136" fill="#c4c5c2" transform="matrix(1.0566 0 0 1.0566 -31.198 24.863)" d="M291.69,-437.59A3.3125,3.3125 0 1 1 285.06,-437.59A3.3125,3.3125 0 1 1 291.69,-437.59z"/>
    <path id="imagebot_137" fill="url(#imagebot_7)" transform="matrix(1.0566 0 0 1.0566 -31.198 24.863)" d="M291.69,-437.59A3.3125,3.3125 0 1 1 285.06,-437.59A3.3125,3.3125 0 1 1 291.69,-437.59z"/>
   </g>
  </g>
  <g id="imagebot_138" opacity="0.16" label="Layer 1" transform="translate(-13.6365 -0.536871) matrix(1 0 0 1 -252.004 446.269)">
   <path id="imagebot_139" stroke="#888a85" stroke-miterlimit="2" fill="#c4c5c2" d="M280.5,-445.5C278.23,-445.5 276.39,-443.95 275.78,-441.88C275.09,-442.24 274.34,-442.5 273.5,-442.5C270.74,-442.5 268.5,-440.26 268.5,-437.5C268.5,-436.92 268.66,-436.39 268.84,-435.88C267.47,-435.1 266.5,-433.69 266.5,-432C266.5,-429.52 268.52,-427.5 271,-427.5L290,-427.5C292.48,-427.5 294.5,-429.52 294.5,-432C294.5,-433.69 293.53,-435.1 292.16,-435.88C292.34,-436.39 292.5,-436.92 292.5,-437.5C292.5,-440.26 290.26,-442.5 287.5,-442.5C286.66,-442.5 285.91,-442.24 285.22,-441.88C284.61,-443.95 282.77,-445.5 280.5,-445.5z"/>
   <path id="imagebot_140" fill="url(#imagebot_31)" d="M280.5,-445C278.31,-445 276.78,-443.66 276.1,-441.16C275.44,-441.5 274.56,-441.99 273.75,-441.99C271.03,-441.99 268.99,-440.05 268.99,-437.44C268.99,-436.9 269.26,-436.11 269.44,-435.62C268.11,-434.89 267,-433.73 267,-432.25C267,-429.9 268.55,-428 271.34,-428L289.66,-428C292.43,-428 294,-429.9 294,-432.25C294,-433.84 292.89,-434.92 291.56,-435.64C291.74,-436.13 292.03,-436.9 292.03,-437.44C292.03,-440.05 289.91,-442.01 287.25,-442.01C286.44,-442.01 285.61,-441.52 284.94,-441.18C284.29,-443.6 282.69,-445 280.5,-445z"/>
   <g id="imagebot_141">
    <path id="imagebot_142" fill="#c4c5c2" transform="matrix(1.0566 0 0 1.0566 -24.198 21.863)" d="M291.69,-437.59A3.3125,3.3125 0 1 1 285.06,-437.59A3.3125,3.3125 0 1 1 291.69,-437.59z"/>
    <path id="imagebot_143" fill="url(#imagebot_28)" transform="matrix(1.0566 0 0 1.0566 -24.198 21.863)" d="M291.69,-437.59A3.3125,3.3125 0 1 1 285.06,-437.59A3.3125,3.3125 0 1 1 291.69,-437.59z"/>
   </g>
   <rect id="imagebot_144" fill="#c4c5c2" x="271" y="-438" width="20" height="9"/>
   <path id="imagebot_145" fill="#c4c5c2" transform="matrix(.90566 0 0 .90566 9.8302 -35.689)" d="M291.69,-437.59A3.3125,3.3125 0 1 1 285.06,-437.59A3.3125,3.3125 0 1 1 291.69,-437.59z"/>
   <g id="imagebot_146">
    <path id="imagebot_147" fill="#c4c5c2" transform="matrix(1.0566 0 0 1.0566 -17.198 24.863)" d="M291.69,-437.59A3.3125,3.3125 0 1 1 285.06,-437.59A3.3125,3.3125 0 1 1 291.69,-437.59z"/>
    <path id="imagebot_148" fill="url(#imagebot_22)" transform="matrix(1.0566 0 0 1.0566 -17.198 24.863)" d="M291.69,-437.59A3.3125,3.3125 0 1 1 285.06,-437.59A3.3125,3.3125 0 1 1 291.69,-437.59z"/>
   </g>
   <g id="imagebot_149">
    <path id="imagebot_150" fill="#c4c5c2" transform="matrix(1.0566 0 0 1.0566 -31.198 24.863)" d="M291.69,-437.59A3.3125,3.3125 0 1 1 285.06,-437.59A3.3125,3.3125 0 1 1 291.69,-437.59z"/>
    <path id="imagebot_151" fill="url(#imagebot_18)" transform="matrix(1.0566 0 0 1.0566 -31.198 24.863)" d="M291.69,-437.59A3.3125,3.3125 0 1 1 285.06,-437.59A3.3125,3.3125 0 1 1 291.69,-437.59z"/>
   </g>
   <g id="imagebot_152" transform="translate(-1)">
    <path id="imagebot_153" fill="#c4c5c2" d="M280.47,-440.97C276.89,-440.97 274,-438.05 274,-434.47C274,-432.1 275.35,-430.13 277.25,-429L283.72,-429C285.62,-430.13 286.97,-432.13 286.97,-434.5C286.97,-438.08 284.05,-440.97 280.47,-440.97z"/>
    <path id="imagebot_154" fill="url(#imagebot_14)" d="M280.5,-441C276.91,-441 274,-438.09 274,-434.5C274,-432.12 275.34,-430.13 277.25,-429L283.75,-429C285.66,-430.13 287,-432.12 287,-434.5C287,-438.09 284.09,-441 280.5,-441z"/>
   </g>
   <path id="imagebot_155" fill="url(#imagebot_11)" transform="matrix(.90566 0 0 .90566 9.8303 -35.689)" d="M291.69,-437.59A3.3125,3.3125 0 1 1 285.06,-437.59A3.3125,3.3125 0 1 1 291.69,-437.59z"/>
   <path id="imagebot_156" fill-rule="evenodd" fill="#888a85" d="M292.96,-437.33C292.95,-434.65 289.69,-433.62 289.69,-433.62S292.04,-435.25 292.02,-437.33L292.96,-437.33z"/>
   <g id="imagebot_157" transform="matrix(1.1429 0 0 1.1429 -28.571 67)">
    <path id="imagebot_158" fill="#c4c5c2" transform="matrix(1.0566 0 0 1.0566 -31.198 24.863)" d="M291.69,-437.59A3.3125,3.3125 0 1 1 285.06,-437.59A3.3125,3.3125 0 1 1 291.69,-437.59z"/>
    <path id="imagebot_159" fill="url(#imagebot_7)" transform="matrix(1.0566 0 0 1.0566 -31.198 24.863)" d="M291.69,-437.59A3.3125,3.3125 0 1 1 285.06,-437.59A3.3125,3.3125 0 1 1 291.69,-437.59z"/>
   </g>
  </g>
 </g>
 <metadata>image/svg+xmlOpencliparttango weather overcast2010-03-07T17:28:23Weather icon from Tango Project: http://tango.freedesktop.org/Tango_Desktop_Project\n\nTango Project icons are Public Domain.https://openclipart.org/detail/30085/tango-weather-overcast-by-warszawiankawarszawiankacloudcloudygrayiconskyspring2013weather</metadata>
</svg>