<?xml version="1.0" encoding="UTF-8" standalone="no"?>
<!-- Generator: IcoMoon.io -->

<svg
   xmlns:dc="http://purl.org/dc/elements/1.1/"
   xmlns:cc="http://creativecommons.org/ns#"
   xmlns:rdf="http://www.w3.org/1999/02/22-rdf-syntax-ns#"
   xmlns:svg="http://www.w3.org/2000/svg"
   xmlns="http://www.w3.org/2000/svg"
   xmlns:sodipodi="http://sodipodi.sourceforge.net/DTD/sodipodi-0.dtd"
   xmlns:inkscape="http://www.inkscape.org/namespaces/inkscape"
   version="1.1"
   id="Layer_1"
   x="0px"
   y="0px"
   width="48px"
   height="48px"
   viewBox="0 0 48 48"
   enable-background="new 0 0 16 16"
   xml:space="preserve"
   fill="#000000"
   inkscape:version="0.48.4 r9939"
   sodipodi:docname="swap-window.svg"><metadata
     id="metadata9"><rdf:RDF><cc:Work
         rdf:about=""><dc:format>image/svg+xml</dc:format><dc:type
           rdf:resource="http://purl.org/dc/dcmitype/StillImage" /></cc:Work></rdf:RDF></metadata><defs
     id="defs7" /><sodipodi:namedview
     pagecolor="#ffffff"
     bordercolor="#666666"
     borderopacity="1"
     objecttolerance="10"
     gridtolerance="10"
     guidetolerance="10"
     inkscape:pageopacity="0"
     inkscape:pageshadow="2"
     inkscape:window-width="742"
     inkscape:window-height="480"
     id="namedview5"
     showgrid="false"
     inkscape:zoom="4.9166667"
     inkscape:cx="24"
     inkscape:cy="24"
     inkscape:window-x="0"
     inkscape:window-y="27"
     inkscape:window-maximized="0"
     inkscape:current-layer="Layer_1" /><path
     d="M 48.00,38.994c0.00,4.971-4.029,9.00-9.00,9.00l-5.268,0.00 l 2.64-2.64 c 0.966-0.972, 1.68-2.124, 2.115-3.36L39.00,41.994 c 1.659,0.00, 3.00-1.341, 3.00-3.00L42.00,11.997 L6.00,11.997 l0.00,26.997 c0.00,1.659, 1.344,3.00, 3.00,3.00l0.51,0.00 c 0.438,1.242, 1.152,2.397, 2.124,3.369l 2.634,2.631L9.00,47.994 c-4.971,0.00-9.00-4.029-9.00-9.00L0.00,8.997 c0.00-4.971, 4.029-9.00, 9.00-9.00l30.00,0.00 c 4.971,0.00, 9.00,4.029, 9.00,9.00L48.00,38.994 z M 9.00,2.997c-1.656,0.00-3.00,1.344-3.00,3.00s 1.344,3.00, 3.00,3.00s 3.00-1.344, 3.00-3.00S 10.656,2.997, 9.00,2.997z M 18.00,35.994l3.00,0.00 L21.00,26.997 c0.00-1.659, 1.344-3.00, 3.00-3.00 c 1.659,0.00, 3.00,1.341, 3.00,3.00l0.00,8.997 l3.00,0.00 c 1.212,0.00, 2.31,0.732, 2.772,1.854c 0.462,1.125, 0.204,2.415-0.651,3.27l-6.00,6.00C 25.536,47.703, 24.768,48.00, 24.00,48.00 s-1.536-0.297-2.121-0.882l-6.00-6.00c-0.858-0.855-1.113-2.151-0.651-3.27C 15.69,36.726, 16.788,35.994, 18.00,35.994z"
     id="path3"
     style="fill:#ececec" /></svg>