<?xml version="1.0" encoding="iso-8859-1"?>
<!-- Generator: Adobe Illustrator 15.0.2, SVG Export Plug-In . SVG Version: 6.00 Build 0)  -->
<!DOCTYPE svg PUBLIC "-//W3C//DTD SVG 1.1//EN" "http://www.w3.org/Graphics/SVG/1.1/DTD/svg11.dtd">
<svg version="1.1" id="Layer_1" xmlns="http://www.w3.org/2000/svg" xmlns:xlink="http://www.w3.org/1999/xlink" x="0px" y="0px"
	 width="152px" height="152px" viewBox="0 0 152 152" style="enable-background:new 0 0 152 152;" xml:space="preserve">
<g>
	
		<radialGradient id="SVGID_1_" cx="72" cy="71" r="64.9766" gradientTransform="matrix(1 0 0 -1 4 147)" gradientUnits="userSpaceOnUse">
		<stop  offset="0" style="stop-color:#8C8C8C"/>
		<stop  offset="1" style="stop-color:#333333"/>
	</radialGradient>
	<path style="fill:url(#SVGID_1_);stroke:#000000;stroke-width:0.7192;" d="M140.977,76.001c0,35.882-29.09,64.976-64.977,64.976
		c-35.887,0-64.977-29.094-64.977-64.976c0-35.887,29.09-64.978,64.977-64.978C111.887,11.023,140.977,40.114,140.977,76.001z"/>
	
		<radialGradient id="SVGID_2_" cx="72.001" cy="70.999" r="56.6943" gradientTransform="matrix(1 0 0 -1 4 147)" gradientUnits="userSpaceOnUse">
		<stop  offset="0" style="stop-color:#1B1C1C"/>
		<stop  offset="0.4479" style="stop-color:#111212"/>
		<stop  offset="0.9818" style="stop-color:#000000"/>
	</radialGradient>
	<circle style="fill:url(#SVGID_2_);" cx="76.001" cy="76.001" r="56.694"/>
	<rect x="47.443" y="104.461" style="fill:none;" width="27.852" height="13.836"/>
	<g style="enable-background:new    ;">
		<path style="fill:#FFFFFF;" d="M54.724,110.104c0,0.807-0.063,1.526-0.188,2.16s-0.326,1.171-0.602,1.613
			s-0.631,0.779-1.066,1.012s-0.96,0.349-1.576,0.349c-0.579,0-1.083-0.116-1.511-0.349s-0.784-0.569-1.066-1.012
			s-0.493-0.979-0.632-1.613s-0.208-1.354-0.208-2.16s0.063-1.529,0.188-2.167s0.325-1.178,0.598-1.62s0.626-0.78,1.06-1.015
			c0.433-0.235,0.957-0.353,1.572-0.353c0.574,0,1.076,0.116,1.504,0.349s0.786,0.569,1.073,1.012s0.501,0.982,0.643,1.62
			S54.724,109.293,54.724,110.104z M49.979,110.104c0,1.14,0.098,1.996,0.294,2.57s0.536,0.861,1.019,0.861
			c0.474,0,0.814-0.285,1.022-0.854s0.311-1.429,0.311-2.577c0-1.144-0.104-2.004-0.311-2.581c-0.208-0.576-0.548-0.864-1.022-0.864
			c-0.242,0-0.445,0.073-0.612,0.219s-0.302,0.362-0.407,0.649s-0.18,0.646-0.226,1.076
			C50.002,109.035,49.979,109.535,49.979,110.104z"/>
	</g>
	<rect x="32.098" y="54.879" style="fill:none;" width="27.852" height="13.836"/>
	<g style="enable-background:new    ;">
		<path style="fill:#FFFFFF;" d="M35.602,58.527c0.367,0,0.709,0.057,1.025,0.17s0.592,0.279,0.826,0.498s0.418,0.491,0.551,0.817
			s0.199,0.7,0.199,1.122c0,0.465-0.072,0.882-0.217,1.251s-0.357,0.682-0.639,0.938s-0.63,0.452-1.046,0.589
			s-0.894,0.205-1.433,0.205c-0.215,0-0.428-0.01-0.639-0.029s-0.413-0.048-0.606-0.085s-0.377-0.085-0.551-0.144
			s-0.331-0.127-0.472-0.205V62.09c0.137,0.078,0.295,0.151,0.475,0.22s0.366,0.127,0.56,0.176s0.388,0.088,0.583,0.117
			s0.381,0.044,0.557,0.044c0.523,0,0.922-0.108,1.195-0.325s0.41-0.562,0.41-1.034c0-0.422-0.134-0.743-0.401-0.964
			s-0.681-0.331-1.239-0.331c-0.102,0-0.21,0.006-0.325,0.018s-0.229,0.027-0.34,0.047s-0.218,0.04-0.319,0.062
			s-0.189,0.044-0.264,0.067l-0.721-0.387l0.322-4.365h4.523v1.535h-2.953l-0.141,1.682c0.125-0.027,0.271-0.055,0.437-0.082
			S35.34,58.527,35.602,58.527z"/>
		<path style="fill:#FFFFFF;" d="M44.947,59.717c0,0.691-0.054,1.309-0.161,1.852s-0.279,1.004-0.516,1.383
			s-0.541,0.668-0.914,0.867s-0.823,0.299-1.351,0.299c-0.496,0-0.928-0.1-1.295-0.299s-0.672-0.488-0.914-0.867
			s-0.423-0.84-0.542-1.383s-0.179-1.16-0.179-1.852s0.054-1.311,0.161-1.857s0.278-1.01,0.513-1.389s0.537-0.669,0.908-0.87
			s0.82-0.302,1.348-0.302c0.492,0,0.922,0.1,1.289,0.299s0.674,0.488,0.92,0.867s0.43,0.842,0.551,1.389
			S44.947,59.021,44.947,59.717z M40.881,59.717c0,0.977,0.084,1.711,0.252,2.203s0.459,0.738,0.873,0.738
			c0.406,0,0.698-0.244,0.876-0.732s0.267-1.225,0.267-2.209c0-0.98-0.089-1.718-0.267-2.212s-0.47-0.741-0.876-0.741
			c-0.207,0-0.382,0.063-0.524,0.188s-0.259,0.311-0.349,0.557s-0.154,0.554-0.193,0.923S40.881,59.229,40.881,59.717z"/>
	</g>
	<rect x="80.775" y="102.836" style="fill:none;" width="27.852" height="13.836"/>
	<g style="enable-background:new    ;">
		<path style="fill:#FFFFFF;" d="M91.36,113.477h-6.706v-1.47l2.352-2.536c0.297-0.319,0.564-0.613,0.807-0.882
			s0.449-0.531,0.622-0.786s0.308-0.515,0.403-0.779s0.144-0.549,0.144-0.854c0-0.337-0.102-0.6-0.304-0.786
			c-0.203-0.187-0.476-0.28-0.817-0.28c-0.36,0-0.706,0.089-1.039,0.267s-0.681,0.431-1.046,0.759l-1.148-1.36
			c0.205-0.187,0.42-0.365,0.643-0.537c0.223-0.17,0.469-0.322,0.738-0.454s0.564-0.238,0.889-0.317
			c0.324-0.08,0.686-0.12,1.087-0.12c0.479,0,0.908,0.066,1.288,0.198c0.381,0.132,0.705,0.32,0.975,0.564
			c0.27,0.243,0.475,0.538,0.619,0.885c0.143,0.347,0.215,0.736,0.215,1.169c0,0.392-0.068,0.767-0.205,1.124
			c-0.137,0.358-0.324,0.709-0.561,1.053c-0.236,0.345-0.512,0.687-0.824,1.025c-0.312,0.34-0.646,0.686-1.001,1.036l-1.203,1.21
			v0.096h4.074V113.477z"/>
		<path style="fill:#FFFFFF;" d="M99.085,108.479c0,0.807-0.063,1.526-0.188,2.16c-0.125,0.634-0.325,1.171-0.602,1.613
			c-0.275,0.442-0.631,0.779-1.066,1.012c-0.435,0.232-0.96,0.349-1.575,0.349c-0.579,0-1.083-0.116-1.511-0.349
			s-0.783-0.569-1.066-1.012s-0.493-0.979-0.633-1.613c-0.139-0.634-0.208-1.354-0.208-2.16s0.063-1.529,0.188-2.167
			c0.125-0.638,0.324-1.178,0.598-1.62s0.627-0.78,1.06-1.015c0.433-0.235,0.957-0.353,1.572-0.353c0.574,0,1.075,0.116,1.504,0.349
			s0.786,0.569,1.073,1.012s0.502,0.982,0.643,1.62S99.085,107.668,99.085,108.479z M94.341,108.479c0,1.14,0.099,1.996,0.294,2.57
			s0.535,0.861,1.019,0.861c0.474,0,0.814-0.285,1.022-0.854c0.207-0.569,0.311-1.429,0.311-2.577c0-1.144-0.104-2.004-0.311-2.581
			c-0.208-0.576-0.549-0.864-1.022-0.864c-0.241,0-0.445,0.073-0.612,0.219c-0.166,0.146-0.301,0.362-0.406,0.649
			s-0.18,0.646-0.226,1.076C94.363,107.41,94.341,107.91,94.341,108.479z"/>
		<path style="fill:#FFFFFF;" d="M106.796,108.479c0,0.807-0.063,1.526-0.188,2.16c-0.125,0.634-0.325,1.171-0.602,1.613
			c-0.275,0.442-0.631,0.779-1.066,1.012c-0.435,0.232-0.96,0.349-1.575,0.349c-0.579,0-1.083-0.116-1.511-0.349
			s-0.783-0.569-1.066-1.012s-0.493-0.979-0.633-1.613c-0.139-0.634-0.208-1.354-0.208-2.16s0.063-1.529,0.188-2.167
			c0.125-0.638,0.324-1.178,0.598-1.62s0.627-0.78,1.06-1.015c0.433-0.235,0.957-0.353,1.572-0.353c0.574,0,1.075,0.116,1.504,0.349
			s0.786,0.569,1.073,1.012s0.502,0.982,0.643,1.62S106.796,107.668,106.796,108.479z M102.052,108.479
			c0,1.14,0.099,1.996,0.294,2.57s0.535,0.861,1.019,0.861c0.474,0,0.814-0.285,1.022-0.854c0.207-0.569,0.311-1.429,0.311-2.577
			c0-1.144-0.104-2.004-0.311-2.581c-0.208-0.576-0.549-0.864-1.022-0.864c-0.241,0-0.445,0.073-0.612,0.219
			c-0.166,0.146-0.301,0.362-0.406,0.649s-0.18,0.646-0.226,1.076C102.074,107.41,102.052,107.91,102.052,108.479z"/>
	</g>
	<rect x="62.729" y="29.036" style="fill:none;" width="27.852" height="13.836"/>
	<g style="enable-background:new    ;">
		<path style="fill:#FFFFFF;" d="M71.633,39.676h-2.112v-5.783c0-0.118,0.001-0.261,0.003-0.428c0.002-0.166,0.007-0.339,0.014-0.52
			c0.007-0.18,0.014-0.36,0.021-0.543s0.013-0.349,0.017-0.499c-0.023,0.027-0.062,0.068-0.116,0.123s-0.116,0.115-0.185,0.181
			c-0.068,0.066-0.139,0.134-0.212,0.202s-0.144,0.13-0.212,0.185l-1.148,0.923l-1.025-1.271l3.22-2.563h1.736V39.676z"/>
		<path style="fill:#FFFFFF;" d="M81.039,34.679c0,0.807-0.063,1.526-0.188,2.16c-0.126,0.634-0.326,1.171-0.602,1.613
			c-0.276,0.442-0.632,0.779-1.066,1.012c-0.436,0.232-0.961,0.349-1.576,0.349c-0.578,0-1.082-0.116-1.511-0.349
			c-0.428-0.232-0.784-0.569-1.066-1.012s-0.493-0.979-0.632-1.613s-0.208-1.354-0.208-2.16s0.063-1.529,0.188-2.167
			s0.325-1.178,0.598-1.62s0.626-0.78,1.06-1.015c0.433-0.235,0.957-0.353,1.572-0.353c0.574,0,1.076,0.116,1.504,0.349
			s0.786,0.569,1.073,1.012s0.501,0.982,0.643,1.62S81.039,33.867,81.039,34.679z M76.295,34.679c0,1.14,0.098,1.996,0.294,2.57
			c0.196,0.574,0.536,0.861,1.019,0.861c0.475,0,0.814-0.285,1.021-0.854c0.208-0.569,0.312-1.429,0.312-2.577
			c0-1.144-0.104-2.004-0.312-2.581c-0.207-0.576-0.547-0.864-1.021-0.864c-0.242,0-0.445,0.073-0.611,0.219
			c-0.167,0.146-0.303,0.362-0.407,0.649c-0.105,0.287-0.18,0.646-0.226,1.076C76.318,33.609,76.295,34.109,76.295,34.679z"/>
		<path style="fill:#FFFFFF;" d="M88.75,34.679c0,0.807-0.063,1.526-0.188,2.16c-0.126,0.634-0.326,1.171-0.602,1.613
			c-0.276,0.442-0.632,0.779-1.066,1.012c-0.436,0.232-0.961,0.349-1.576,0.349c-0.578,0-1.082-0.116-1.511-0.349
			s-0.784-0.569-1.066-1.012s-0.493-0.979-0.632-1.613c-0.14-0.634-0.209-1.354-0.209-2.16s0.063-1.529,0.188-2.167
			c0.126-0.638,0.325-1.178,0.599-1.62s0.626-0.78,1.06-1.015c0.434-0.235,0.957-0.353,1.572-0.353c0.574,0,1.076,0.116,1.504,0.349
			s0.786,0.569,1.073,1.012s0.501,0.982,0.643,1.62S88.75,33.867,88.75,34.679z M84.006,34.679c0,1.14,0.098,1.996,0.294,2.57
			s0.536,0.861,1.019,0.861c0.475,0,0.814-0.285,1.021-0.854c0.208-0.569,0.312-1.429,0.312-2.577c0-1.144-0.104-2.004-0.312-2.581
			c-0.207-0.576-0.547-0.864-1.021-0.864c-0.242,0-0.445,0.073-0.611,0.219c-0.167,0.146-0.303,0.362-0.407,0.649
			s-0.181,0.646-0.226,1.076C84.029,33.609,84.006,34.109,84.006,34.679z"/>
	</g>
	<rect x="93.301" y="54.88" style="fill:none;" width="27.852" height="13.836"/>
	<g style="enable-background:new    ;">
		<path style="fill:#FFFFFF;" d="M102.204,65.52h-2.112v-5.783c0-0.118,0.001-0.261,0.004-0.428c0.002-0.166,0.006-0.339,0.014-0.52
			c0.006-0.18,0.014-0.36,0.02-0.543c0.008-0.183,0.014-0.349,0.018-0.499c-0.023,0.027-0.062,0.068-0.116,0.123
			s-0.116,0.115-0.185,0.181c-0.068,0.066-0.139,0.134-0.212,0.202s-0.144,0.13-0.212,0.185l-1.148,0.923l-1.025-1.271l3.22-2.563
			h1.736V65.52z"/>
		<path style="fill:#FFFFFF;" d="M108.418,59.135c0.428,0,0.827,0.066,1.196,0.198s0.69,0.326,0.964,0.581s0.488,0.573,0.643,0.953
			c0.154,0.381,0.232,0.817,0.232,1.31c0,0.542-0.084,1.028-0.253,1.46c-0.169,0.43-0.417,0.795-0.745,1.094
			c-0.328,0.298-0.734,0.527-1.221,0.687c-0.484,0.159-1.042,0.239-1.671,0.239c-0.251,0-0.499-0.012-0.745-0.034
			s-0.482-0.056-0.707-0.099c-0.227-0.044-0.44-0.1-0.643-0.168c-0.203-0.068-0.387-0.148-0.551-0.239v-1.825
			c0.16,0.091,0.344,0.177,0.554,0.256c0.21,0.08,0.427,0.148,0.653,0.205c0.225,0.058,0.451,0.104,0.68,0.137
			c0.229,0.035,0.444,0.052,0.649,0.052c0.61,0,1.075-0.126,1.395-0.38c0.319-0.252,0.479-0.654,0.479-1.206
			c0-0.492-0.156-0.867-0.468-1.124c-0.313-0.258-0.795-0.387-1.446-0.387c-0.118,0-0.245,0.007-0.38,0.021
			c-0.134,0.014-0.266,0.032-0.396,0.055c-0.129,0.022-0.254,0.047-0.372,0.071c-0.118,0.025-0.222,0.052-0.308,0.079l-0.841-0.451
			l0.376-5.093h5.277v1.791h-3.445l-0.164,1.962c0.146-0.032,0.315-0.063,0.51-0.096C107.863,59.15,108.113,59.135,108.418,59.135z"
			/>
		<path style="fill:#FFFFFF;" d="M119.321,60.522c0,0.807-0.063,1.526-0.188,2.16c-0.125,0.634-0.325,1.171-0.602,1.613
			c-0.275,0.442-0.631,0.779-1.066,1.012c-0.435,0.232-0.96,0.349-1.575,0.349c-0.579,0-1.083-0.116-1.511-0.349
			s-0.783-0.569-1.066-1.012s-0.493-0.979-0.633-1.613c-0.139-0.634-0.208-1.354-0.208-2.16s0.063-1.529,0.188-2.167
			c0.125-0.638,0.324-1.178,0.598-1.62s0.627-0.78,1.06-1.015c0.433-0.235,0.957-0.353,1.572-0.353c0.574,0,1.075,0.116,1.504,0.349
			s0.786,0.569,1.073,1.012s0.502,0.982,0.643,1.62S119.321,59.711,119.321,60.522z M114.577,60.522c0,1.14,0.099,1.996,0.294,2.57
			s0.535,0.861,1.019,0.861c0.474,0,0.814-0.285,1.022-0.854c0.207-0.569,0.311-1.429,0.311-2.577c0-1.144-0.104-2.004-0.311-2.581
			c-0.208-0.576-0.549-0.864-1.022-0.864c-0.241,0-0.445,0.073-0.612,0.219c-0.166,0.146-0.301,0.362-0.406,0.649
			s-0.18,0.646-0.226,1.076C114.6,59.453,114.577,59.953,114.577,60.522z"/>
	</g>
	<g>
		<g style="enable-background:new    ;">
			<path style="fill:#FFFFFF;" d="M69.462,96.646h-4.546v-1.203l1.217-0.561v-6.467l-1.217-0.561v-1.203h4.546v1.203l-1.217,0.561
				v6.467l1.217,0.561V96.646z"/>
			<path style="fill:#FFFFFF;" d="M76.872,96.646l-0.684-2.379h-3.445l-0.69,2.379h-2.14l3.247-10.035h2.591l3.261,10.035H76.872z
				 M75.696,92.49l-0.643-2.188c-0.027-0.082-0.068-0.217-0.123-0.403s-0.113-0.394-0.174-0.618
				c-0.062-0.227-0.12-0.453-0.174-0.681s-0.093-0.422-0.116-0.581c-0.018,0.101-0.042,0.219-0.072,0.355s-0.064,0.281-0.103,0.434
				c-0.039,0.153-0.079,0.307-0.12,0.462s-0.08,0.301-0.116,0.438s-0.069,0.258-0.099,0.362s-0.051,0.183-0.065,0.232l-0.636,2.188
				H75.696z"/>
			<path style="fill:#FFFFFF;" d="M83.072,96.646H80.96v-8.23h-2.509v-1.764h7.123v1.764h-2.502V96.646z"/>
		</g>
	</g>
	<path style="fill:#90211C;" d="M109.823,121.506c10.114-7.531,17.636-18.355,20.97-30.887l-2.908-0.77
		c-3.167,11.856-10.303,22.11-19.891,29.248C109.076,120.588,109.395,121.012,109.823,121.506z"/>
	
		<line style="fill:none;stroke:#FFFFFF;stroke-width:2.6404;stroke-miterlimit:10;" x1="43.287" y1="119.447" x2="46.023" y2="115.893"/>
	<path style="fill:none;stroke:#CCCCCC;stroke-width:0.5281;stroke-miterlimit:10;" d="M47.803,118.916"/>
	
		<line style="fill:none;stroke:#FFFFFF;stroke-width:2.6404;stroke-miterlimit:10;" x1="24.111" y1="91.447" x2="28.416" y2="90.188"/>
	
		<line style="fill:none;stroke:#CCCCCC;stroke-width:0.5281;stroke-miterlimit:10;" x1="40.621" y1="117.258" x2="42.646" y2="114.943"/>
	
		<line style="fill:none;stroke:#CCCCCC;stroke-width:0.5281;stroke-miterlimit:10;" x1="38.098" y1="114.908" x2="40.266" y2="112.723"/>
	
		<line style="fill:none;stroke:#CCCCCC;stroke-width:0.5281;stroke-miterlimit:10;" x1="35.727" y1="112.4" x2="38.027" y2="110.357"/>
	
		<line style="fill:none;stroke:#CCCCCC;stroke-width:0.5281;stroke-miterlimit:10;" x1="33.516" y1="109.754" x2="35.939" y2="107.857"/>
	
		<line style="fill:none;stroke:#CCCCCC;stroke-width:0.5281;stroke-miterlimit:10;" x1="29.617" y1="104.066" x2="32.26" y2="102.488"/>
	
		<line style="fill:none;stroke:#CCCCCC;stroke-width:0.5281;stroke-miterlimit:10;" x1="27.941" y1="101.049" x2="30.678" y2="99.643"/>
	
		<line style="fill:none;stroke:#CCCCCC;stroke-width:0.5281;stroke-miterlimit:10;" x1="26.465" y1="97.932" x2="29.285" y2="96.699"/>
	
		<line style="fill:none;stroke:#CCCCCC;stroke-width:0.5281;stroke-miterlimit:10;" x1="25.182" y1="94.727" x2="28.076" y2="93.678"/>
	
		<line style="fill:none;stroke:#CCCCCC;stroke-width:0.5281;stroke-miterlimit:10;" x1="31.479" y1="106.971" x2="34.016" y2="105.23"/>
	
		<line style="fill:none;stroke:#FFFFFF;stroke-width:2.6404;stroke-miterlimit:10;" x1="25.104" y1="57.591" x2="29.326" y2="59.104"/>
	
		<line style="fill:none;stroke:#CCCCCC;stroke-width:0.5281;stroke-miterlimit:10;" x1="23.262" y1="88.178" x2="26.264" y2="87.498"/>
	
		<line style="fill:none;stroke:#CCCCCC;stroke-width:0.5281;stroke-miterlimit:10;" x1="22.609" y1="84.789" x2="25.646" y2="84.301"/>
	
		<line style="fill:none;stroke:#CCCCCC;stroke-width:0.5281;stroke-miterlimit:10;" x1="22.168" y1="81.367" x2="25.232" y2="81.072"/>
	
		<line style="fill:none;stroke:#CCCCCC;stroke-width:0.5281;stroke-miterlimit:10;" x1="21.945" y1="77.926" x2="25.021" y2="77.822"/>
	
		<line style="fill:none;stroke:#CCCCCC;stroke-width:0.5281;stroke-miterlimit:10;" x1="22.141" y1="71.036" x2="25.207" y2="71.314"/>
	
		<line style="fill:none;stroke:#CCCCCC;stroke-width:0.5281;stroke-miterlimit:10;" x1="22.559" y1="67.611" x2="25.6" y2="68.082"/>
	
		<line style="fill:none;stroke:#CCCCCC;stroke-width:0.5281;stroke-miterlimit:10;" x1="23.195" y1="64.221" x2="26.201" y2="64.883"/>
	<line style="fill:none;stroke:#CCCCCC;stroke-width:0.5281;stroke-miterlimit:10;" x1="24.043" y1="60.875" x2="27" y2="61.727"/>
	
		<line style="fill:none;stroke:#CCCCCC;stroke-width:0.5281;stroke-miterlimit:10;" x1="21.934" y1="74.479" x2="25.01" y2="74.565"/>
	
		<line style="fill:none;stroke:#FFFFFF;stroke-width:2.6404;stroke-miterlimit:10;" x1="45.828" y1="30.805" x2="48.357" y2="34.51"/>
	
		<line style="fill:none;stroke:#CCCCCC;stroke-width:0.5281;stroke-miterlimit:10;" x1="26.34" y1="54.447" x2="29.168" y2="55.663"/>
	
		<line style="fill:none;stroke:#CCCCCC;stroke-width:0.5281;stroke-miterlimit:10;" x1="27.803" y1="51.322" x2="30.547" y2="52.714"/>
	
		<line style="fill:none;stroke:#CCCCCC;stroke-width:0.5281;stroke-miterlimit:10;" x1="29.461" y1="48.296" x2="32.111" y2="49.858"/>
	
		<line style="fill:none;stroke:#CCCCCC;stroke-width:0.5281;stroke-miterlimit:10;" x1="31.303" y1="45.379" x2="33.85" y2="47.105"/>
	
		<line style="fill:none;stroke:#CCCCCC;stroke-width:0.5281;stroke-miterlimit:10;" x1="35.521" y1="39.926" x2="37.834" y2="41.957"/>
	
		<line style="fill:none;stroke:#CCCCCC;stroke-width:0.5281;stroke-miterlimit:10;" x1="37.877" y1="37.406" x2="40.057" y2="39.578"/>
	
		<line style="fill:none;stroke:#CCCCCC;stroke-width:0.5281;stroke-miterlimit:10;" x1="40.389" y1="35.043" x2="42.43" y2="37.347"/>
	
		<line style="fill:none;stroke:#CCCCCC;stroke-width:0.5281;stroke-miterlimit:10;" x1="43.041" y1="32.838" x2="44.934" y2="35.266"/>
	
		<line style="fill:none;stroke:#CCCCCC;stroke-width:0.5281;stroke-miterlimit:10;" x1="33.328" y1="42.587" x2="35.762" y2="44.47"/>
	
		<line style="fill:none;stroke:#FFFFFF;stroke-width:2.6404;stroke-miterlimit:10;" x1="78.416" y1="21.337" x2="78.273" y2="25.82"/>
	
		<line style="fill:none;stroke:#CCCCCC;stroke-width:0.5281;stroke-miterlimit:10;" x1="48.738" y1="28.951" x2="50.311" y2="31.598"/>
	
		<line style="fill:none;stroke:#CCCCCC;stroke-width:0.5281;stroke-miterlimit:10;" x1="51.758" y1="27.281" x2="53.158" y2="30.021"/>
	
		<line style="fill:none;stroke:#CCCCCC;stroke-width:0.5281;stroke-miterlimit:10;" x1="54.879" y1="25.811" x2="56.105" y2="28.634"/>
	
		<line style="fill:none;stroke:#CCCCCC;stroke-width:0.5281;stroke-miterlimit:10;" x1="58.086" y1="24.537" x2="59.131" y2="27.433"/>
	
		<line style="fill:none;stroke:#CCCCCC;stroke-width:0.5281;stroke-miterlimit:10;" x1="64.713" y1="22.615" x2="65.381" y2="25.62"/>
	
		<line style="fill:none;stroke:#CCCCCC;stroke-width:0.5281;stroke-miterlimit:10;" x1="68.102" y1="21.972" x2="68.58" y2="25.013"/>
	
		<line style="fill:none;stroke:#CCCCCC;stroke-width:0.5281;stroke-miterlimit:10;" x1="71.525" y1="21.547" x2="71.811" y2="24.611"/>
	
		<line style="fill:none;stroke:#CCCCCC;stroke-width:0.5281;stroke-miterlimit:10;" x1="74.969" y1="21.334" x2="75.061" y2="24.41"/>
	
		<line style="fill:none;stroke:#CCCCCC;stroke-width:0.5281;stroke-miterlimit:10;" x1="61.369" y1="23.471" x2="62.227" y2="26.427"/>
	
		<line style="fill:none;stroke:#CCCCCC;stroke-width:0.5281;stroke-miterlimit:10;" x1="81.783" y1="21.547" x2="81.498" y2="24.611"/>
	
		<line style="fill:none;stroke:#CCCCCC;stroke-width:0.5281;stroke-miterlimit:10;" x1="85.207" y1="21.974" x2="84.73" y2="25.014"/>
	
		<line style="fill:none;stroke:#CCCCCC;stroke-width:0.5281;stroke-miterlimit:10;" x1="88.598" y1="22.617" x2="87.93" y2="25.621"/>
	
		<line style="fill:none;stroke:#CCCCCC;stroke-width:0.5281;stroke-miterlimit:10;" x1="91.941" y1="23.473" x2="91.082" y2="26.429"/>
	
		<line style="fill:none;stroke:#CCCCCC;stroke-width:0.5281;stroke-miterlimit:10;" x1="98.43" y1="25.813" x2="97.205" y2="28.637"/>
	
		<line style="fill:none;stroke:#CCCCCC;stroke-width:0.5281;stroke-miterlimit:10;" x1="101.551" y1="27.283" x2="100.15" y2="30.023"/>
	
		<line style="fill:none;stroke:#CCCCCC;stroke-width:0.5281;stroke-miterlimit:10;" x1="104.57" y1="28.954" x2="102.998" y2="31.6"/>
	
		<line style="fill:none;stroke:#CCCCCC;stroke-width:0.5281;stroke-miterlimit:10;" x1="107.48" y1="30.808" x2="105.746" y2="33.35"/>
	
		<line style="fill:none;stroke:#CCCCCC;stroke-width:0.5281;stroke-miterlimit:10;" x1="95.223" y1="24.539" x2="94.18" y2="27.435"/>
	
		<line style="fill:none;stroke:#FFFFFF;stroke-width:2.6404;stroke-miterlimit:10;" x1="107.48" y1="30.808" x2="104.951" y2="34.513"/>
	
		<line style="fill:none;stroke:#FFFFFF;stroke-width:2.6404;stroke-miterlimit:10;" x1="128.229" y1="57.664" x2="124.004" y2="59.17"/>
	
		<line style="fill:none;stroke:#CCCCCC;stroke-width:0.5281;stroke-miterlimit:10;" x1="110.268" y1="32.841" x2="108.375" y2="35.269"/>
	
		<line style="fill:none;stroke:#CCCCCC;stroke-width:0.5281;stroke-miterlimit:10;" x1="112.92" y1="35.046" x2="110.879" y2="37.35"/>
	
		<line style="fill:none;stroke:#CCCCCC;stroke-width:0.5281;stroke-miterlimit:10;" x1="115.432" y1="37.409" x2="113.252" y2="39.582"/>
	
		<line style="fill:none;stroke:#CCCCCC;stroke-width:0.5281;stroke-miterlimit:10;" x1="117.787" y1="39.93" x2="115.475" y2="41.961"/>
	
		<line style="fill:none;stroke:#CCCCCC;stroke-width:0.5281;stroke-miterlimit:10;" x1="122.006" y1="45.383" x2="119.459" y2="47.108"/>
	
		<line style="fill:none;stroke:#CCCCCC;stroke-width:0.5281;stroke-miterlimit:10;" x1="123.848" y1="48.3" x2="121.197" y2="49.862"/>
	
		<line style="fill:none;stroke:#CCCCCC;stroke-width:0.5281;stroke-miterlimit:10;" x1="125.506" y1="51.325" x2="122.762" y2="52.717"/>
	
		<line style="fill:none;stroke:#CCCCCC;stroke-width:0.5281;stroke-miterlimit:10;" x1="126.969" y1="54.451" x2="124.141" y2="55.667"/>
	
		<line style="fill:none;stroke:#CCCCCC;stroke-width:0.5281;stroke-miterlimit:10;" x1="119.98" y1="42.59" x2="117.547" y2="44.473"/>
	
		<line style="fill:none;stroke:#FFFFFF;stroke-width:2.6404;stroke-miterlimit:10;" x1="129.154" y1="91.592" x2="124.852" y2="90.32"/>
	
		<line style="fill:none;stroke:#CCCCCC;stroke-width:0.5281;stroke-miterlimit:10;" x1="129.285" y1="60.949" x2="126.328" y2="61.796"/>
	
		<line style="fill:none;stroke:#CCCCCC;stroke-width:0.5281;stroke-miterlimit:10;" x1="130.127" y1="64.296" x2="127.121" y2="64.953"/>
	
		<line style="fill:none;stroke:#CCCCCC;stroke-width:0.5281;stroke-miterlimit:10;" x1="130.762" y1="67.688" x2="127.719" y2="68.154"/>
	
		<line style="fill:none;stroke:#CCCCCC;stroke-width:0.5281;stroke-miterlimit:10;" x1="131.172" y1="71.113" x2="128.107" y2="71.387"/>
	
		<line style="fill:none;stroke:#CCCCCC;stroke-width:0.5281;stroke-miterlimit:10;" x1="131.357" y1="78.003" x2="128.283" y2="77.895"/>
	
		<line style="fill:none;stroke:#CCCCCC;stroke-width:0.5281;stroke-miterlimit:10;" x1="131.131" y1="81.445" x2="128.068" y2="81.145"/>
	
		<line style="fill:none;stroke:#CCCCCC;stroke-width:0.5281;stroke-miterlimit:10;" x1="130.686" y1="84.865" x2="127.648" y2="84.373"/>
	
		<line style="fill:none;stroke:#CCCCCC;stroke-width:0.5281;stroke-miterlimit:10;" x1="130.029" y1="88.254" x2="127.027" y2="87.57"/>
	
		<line style="fill:none;stroke:#CCCCCC;stroke-width:0.5281;stroke-miterlimit:10;" x1="131.375" y1="74.556" x2="128.299" y2="74.638"/>
	
		<line style="fill:none;stroke:#FFFFFF;stroke-width:2.6404;stroke-miterlimit:10;" x1="109.957" y1="119.494" x2="107.227" y2="115.936"/>
	
		<line style="fill:none;stroke:#CCCCCC;stroke-width:0.5281;stroke-miterlimit:10;" x1="128.098" y1="94.801" x2="125.207" y2="93.746"/>
	
		<line style="fill:none;stroke:#CCCCCC;stroke-width:0.5281;stroke-miterlimit:10;" x1="126.811" y1="98.002" x2="123.992" y2="96.766"/>
	
		<line style="fill:none;stroke:#CCCCCC;stroke-width:0.5281;stroke-miterlimit:10;" x1="125.328" y1="101.117" x2="122.594" y2="99.707"/>
	
		<line style="fill:none;stroke:#CCCCCC;stroke-width:0.5281;stroke-miterlimit:10;" x1="123.648" y1="104.133" x2="121.01" y2="102.551"/>
	
		<line style="fill:none;stroke:#CCCCCC;stroke-width:0.5281;stroke-miterlimit:10;" x1="119.744" y1="109.814" x2="117.322" y2="107.916"/>
	
		<line style="fill:none;stroke:#CCCCCC;stroke-width:0.5281;stroke-miterlimit:10;" x1="117.527" y1="112.459" x2="115.23" y2="110.41"/>
	
		<line style="fill:none;stroke:#CCCCCC;stroke-width:0.5281;stroke-miterlimit:10;" x1="115.154" y1="114.961" x2="112.99" y2="112.773"/>
	
		<line style="fill:none;stroke:#CCCCCC;stroke-width:0.5281;stroke-miterlimit:10;" x1="112.627" y1="117.309" x2="110.604" y2="114.99"/>
	
		<line style="fill:none;stroke:#CCCCCC;stroke-width:0.5281;stroke-miterlimit:10;" x1="121.785" y1="107.033" x2="119.248" y2="105.289"/>
</g>
</svg>
