<?xml version="1.0" encoding="iso-8859-1"?>
<!-- Generator: Adobe Illustrator 15.0.2, SVG Export Plug-In . SVG Version: 6.00 Build 0)  -->
<!DOCTYPE svg PUBLIC "-//W3C//DTD SVG 1.1//EN" "http://www.w3.org/Graphics/SVG/1.1/DTD/svg11.dtd">
<svg version="1.1" id="Layer_1" xmlns="http://www.w3.org/2000/svg" xmlns:xlink="http://www.w3.org/1999/xlink" x="0px" y="0px"
	 width="720px" height="660px" viewBox="0 0 720 660" style="enable-background:new 0 0 720 660;" xml:space="preserve">
<path style="fill:#232323;" d="M266.204,448.236c0,63.119-51.17,114.287-114.287,114.287c-63.118,0-114.288-51.168-114.288-114.287
	c0-41.362,21.973-77.592,54.882-97.654c40.751,0,84.068,0.002,118.815,0.002C244.231,370.647,266.204,406.876,266.204,448.236z"/>
<path style="fill:#646466;" d="M103.142,398.141c-54.078,32.553-8.516,141.021,48.775,164.383
	c-63.118,0-114.288-51.168-114.288-114.287c0-41.362,21.973-77.592,54.882-97.654c40.751,0,84.068,0.002,118.815,0.002
	C150.147,418.237,138.228,377.023,103.142,398.141z"/>
<path style="fill:#232324;" d="M260.32,457.081c0,59.87-48.534,108.403-108.403,108.403c-59.87,0-108.404-48.533-108.404-108.403
	c0-41.969,23.85-78.367,58.736-96.381c24.719,0,70.627,0.001,99.337,0.001C236.47,378.716,260.32,415.113,260.32,457.081z"/>
<radialGradient id="SVGID_1_" cx="151.916" cy="468.1504" r="100.7883" gradientUnits="userSpaceOnUse">
	<stop  offset="0" style="stop-color:#1B1C1C"/>
	<stop  offset="0.4479" style="stop-color:#111212"/>
	<stop  offset="0.9818" style="stop-color:#000000"/>
</radialGradient>
<path style="fill:url(#SVGID_1_);stroke:#474747;" d="M255.112,463.278c0,56.994-46.203,103.193-103.196,103.193
	c-56.991,0-103.196-46.199-103.196-103.193c0-41.316,24.284-76.964,59.355-93.446c25.926,0,59.865-0.002,87.679-0.002
	C230.827,386.313,255.112,421.96,255.112,463.278z"/>
<g>
	<linearGradient id="SVGID_2_" gradientUnits="userSpaceOnUse" x1="150.1479" y1="400.4043" x2="150.1479" y2="378.2373">
		<stop  offset="0" style="stop-color:#586AC2"/>
		<stop  offset="0.182" style="stop-color:#5B6FC5"/>
		<stop  offset="0.3967" style="stop-color:#647DCE"/>
		<stop  offset="0.6279" style="stop-color:#7395DD"/>
		<stop  offset="0.869" style="stop-color:#87B6F2"/>
		<stop  offset="1" style="stop-color:#94CBFF"/>
	</linearGradient>
	<path style="fill:url(#SVGID_2_);" d="M136.643,400.396c-0.099,0-0.29-0.085-0.18-0.266l13.476-21.756
		c0.112-0.182,0.297-0.182,0.41-0.002l13.473,21.758c0.111,0.181,0,0.29-0.18,0.272
		C152.093,398.722,147.344,398.794,136.643,400.396z"/>
</g>
</svg>
