<?xml version="1.0" encoding="utf-8"?>
<!-- Generator: Adobe Illustrator 15.0.2, SVG Export Plug-In . SVG Version: 6.00 Build 0)  -->
<!DOCTYPE svg PUBLIC "-//W3C//DTD SVG 1.1//EN" "http://www.w3.org/Graphics/SVG/1.1/DTD/svg11.dtd">
<svg version="1.1" id="Layer_1" xmlns="http://www.w3.org/2000/svg" xmlns:xlink="http://www.w3.org/1999/xlink" x="0px" y="0px"
	 width="721px" height="661px" viewBox="0 0 721 661" enable-background="new 0 0 721 661" xml:space="preserve">
<g>
	<path fill="#1F1F1F" stroke="#414143" stroke-width="3.9397" d="M413.75,55c164.924,0,298.621,133.697,298.621,298.619
		c0,164.924-133.697,298.621-298.621,298.621c-56.034,0-108.462-15.434-153.268-42.28v-84.217L413.75,351.71V55z"/>
	<path fill="#1F1F1F" stroke="#414143" stroke-width="3.8359" d="M92.122,358.896C92.12,226.808,176.333,116.1,293.998,74.842
		c30.939,88.443,102.227,284.056,102.227,284.056L92.122,358.896L92.122,358.896z"/>
	
		<linearGradient id="SVGID_1_" gradientUnits="userSpaceOnUse" x1="208.9497" y1="516.6348" x2="326.5278" y2="615.2945" gradientTransform="matrix(1 0 0 -1 -36 686)">
		<stop  offset="0" style="stop-color:#242424;stop-opacity:0"/>
		<stop  offset="0.0202" style="stop-color:#392727;stop-opacity:0.0202"/>
		<stop  offset="0.0649" style="stop-color:#622C2D;stop-opacity:0.0649"/>
		<stop  offset="0.1153" style="stop-color:#883133;stop-opacity:0.1153"/>
		<stop  offset="0.1701" style="stop-color:#A83637;stop-opacity:0.1701"/>
		<stop  offset="0.2306" style="stop-color:#C4393B;stop-opacity:0.2306"/>
		<stop  offset="0.2989" style="stop-color:#DA3C3F;stop-opacity:0.2989"/>
		<stop  offset="0.3787" style="stop-color:#EA3E41;stop-opacity:0.3787"/>
		<stop  offset="0.4774" style="stop-color:#F64043;stop-opacity:0.4774"/>
		<stop  offset="0.6158" style="stop-color:#FD4144;stop-opacity:0.6158"/>
		<stop  offset="1" style="stop-color:#FF4144"/>
	</linearGradient>
	<path opacity="0.5" fill="url(#SVGID_1_)" enable-background="new    " d="M166.133,161.242
		c33.471-39.958,87.805-73.291,127.865-86.4c0.994,2.841,2.029,5.792,3.104,8.843c-51.932,19.841-91.596,46.992-125.031,83.434
		C169.563,164.671,168.505,163.615,166.133,161.242z"/>
	<path fill="#1F1F1F" stroke="#414143" stroke-width="3.8359" d="M397.26,651.467c-161.586,0.573-290.378-129.964-290.949-291.546
		l289.914-1.024L397.26,651.467z"/>
	<g opacity="0.7">
		<path fill="#FFFFFF" d="M181.707,552.035c21.43,24.244,46.833,44.841,75.23,60.765l0.44-17.03
			c-19.353-11.616-37.374-25.729-53.669-42.17c-1.736-1.751-3.445-3.521-5.131-5.313"/>
	</g>
	<path opacity="0.5" fill="#FF4144" enable-background="new    " d="M503.293,621.441l5.092,14.034
		c-29.703,9.947-61.49,15.349-94.543,15.349c-1.408,0-2.813-0.018-4.215-0.036v-14.949c0.055,0.001,0.111,0.003,0.166,0.004
		c1.35,0.021,2.699,0.029,4.049,0.029C444.584,635.872,474.58,631.026,503.293,621.441"/>
	<g>
		<g>
			<g>
				
					<line fill="none" stroke="#FFFFFF" stroke-width="6.961" stroke-miterlimit="10" x1="413.386" y1="639.865" x2="413.243" y2="628.041"/>
				
					<line fill="none" stroke="#FFFFFF" stroke-width="6.961" stroke-miterlimit="10" x1="500.881" y1="625.18" x2="497.141" y2="613.96"/>
				
					<line fill="none" stroke="#CCCCCC" stroke-width="1.3922" stroke-miterlimit="10" x1="422.287" y1="639.622" x2="421.941" y2="631.516"/>
				
					<line fill="none" stroke="#CCCCCC" stroke-width="1.3922" stroke-miterlimit="10" x1="431.177" y1="639.106" x2="430.583" y2="631.015"/>
				
					<line fill="none" stroke="#CCCCCC" stroke-width="1.3922" stroke-miterlimit="10" x1="440.049" y1="638.318" x2="439.206" y2="630.248"/>
				
					<line fill="none" stroke="#CCCCCC" stroke-width="1.3922" stroke-miterlimit="10" x1="448.892" y1="637.257" x2="447.801" y2="629.217"/>
				
					<line fill="none" stroke="#CCCCCC" stroke-width="1.3922" stroke-miterlimit="10" x1="466.46" y1="634.313" x2="464.872" y2="626.357"/>
				
					<line fill="none" stroke="#CCCCCC" stroke-width="1.3922" stroke-miterlimit="10" x1="475.168" y1="632.434" x2="473.332" y2="624.531"/>
				
					<line fill="none" stroke="#CCCCCC" stroke-width="1.3922" stroke-miterlimit="10" x1="483.813" y1="630.283" x2="481.732" y2="622.441"/>
				
					<line fill="none" stroke="#CCCCCC" stroke-width="1.3922" stroke-miterlimit="10" x1="492.387" y1="627.864" x2="490.063" y2="620.092"/>
				
					<line fill="none" stroke="#CCCCCC" stroke-width="1.3922" stroke-miterlimit="10" x1="457.698" y1="635.922" x2="456.358" y2="627.92"/>
				
					<line fill="none" stroke="#FFFFFF" stroke-width="6.961" stroke-miterlimit="10" x1="579.685" y1="584.416" x2="572.695" y2="574.876"/>
				
					<line fill="none" stroke="#CCCCCC" stroke-width="1.3922" stroke-miterlimit="10" x1="509.287" y1="622.23" x2="506.482" y2="614.617"/>
				
					<line fill="none" stroke="#CCCCCC" stroke-width="1.3922" stroke-miterlimit="10" x1="517.597" y1="619.021" x2="514.556" y2="611.498"/>
				
					<line fill="none" stroke="#CCCCCC" stroke-width="1.3922" stroke-miterlimit="10" x1="525.803" y1="615.553" x2="522.529" y2="608.129"/>
				
					<line fill="none" stroke="#CCCCCC" stroke-width="1.3922" stroke-miterlimit="10" x1="533.896" y1="611.832" x2="530.394" y2="604.514"/>
				
					<line fill="none" stroke="#CCCCCC" stroke-width="1.3922" stroke-miterlimit="10" x1="549.717" y1="603.646" x2="545.767" y2="596.56"/>
				
					<line fill="none" stroke="#CCCCCC" stroke-width="1.3922" stroke-miterlimit="10" x1="557.429" y1="599.188" x2="553.261" y2="592.229"/>
				
					<line fill="none" stroke="#CCCCCC" stroke-width="1.3922" stroke-miterlimit="10" x1="564.999" y1="594.494" x2="560.617" y2="587.666"/>
				
					<line fill="none" stroke="#CCCCCC" stroke-width="1.3922" stroke-miterlimit="10" x1="572.42" y1="589.568" x2="567.829" y2="582.879"/>
				
					<line fill="none" stroke="#CCCCCC" stroke-width="1.3922" stroke-miterlimit="10" x1="541.87" y1="607.861" x2="538.142" y2="600.656"/>
				
					<line fill="none" stroke="#FFFFFF" stroke-width="6.961" stroke-miterlimit="10" x1="642.244" y1="521.781" x2="632.696" y2="514.803"/>
				
					<line fill="none" stroke="#CCCCCC" stroke-width="1.3922" stroke-miterlimit="10" x1="586.637" y1="579.158" x2="581.646" y2="572.762"/>
				
					<line fill="none" stroke="#CCCCCC" stroke-width="1.3922" stroke-miterlimit="10" x1="593.574" y1="573.572" x2="588.389" y2="567.332"/>
				
					<line fill="none" stroke="#CCCCCC" stroke-width="1.3922" stroke-miterlimit="10" x1="600.336" y1="567.775" x2="594.961" y2="561.698"/>
				
					<line fill="none" stroke="#CCCCCC" stroke-width="1.3922" stroke-miterlimit="10" x1="606.916" y1="561.774" x2="601.356" y2="555.865"/>
				
					<line fill="none" stroke="#CCCCCC" stroke-width="1.3922" stroke-miterlimit="10" x1="619.506" y1="549.177" x2="613.593" y2="543.621"/>
				
					<line fill="none" stroke="#CCCCCC" stroke-width="1.3922" stroke-miterlimit="10" x1="625.504" y1="542.594" x2="619.423" y2="537.223"/>
				
					<line fill="none" stroke="#CCCCCC" stroke-width="1.3922" stroke-miterlimit="10" x1="631.297" y1="535.829" x2="625.054" y2="530.646"/>
				
					<line fill="none" stroke="#CCCCCC" stroke-width="1.3922" stroke-miterlimit="10" x1="636.879" y1="528.89" x2="630.479" y2="523.902"/>
				
					<line fill="none" stroke="#CCCCCC" stroke-width="1.3922" stroke-miterlimit="10" x1="613.308" y1="555.573" x2="607.569" y2="549.838"/>
				
					<line fill="none" stroke="#FFFFFF" stroke-width="6.961" stroke-miterlimit="10" x1="682.854" y1="443.107" x2="671.632" y2="439.373"/>
				
					<line fill="none" stroke="#CCCCCC" stroke-width="1.3922" stroke-miterlimit="10" x1="647.281" y1="514.666" x2="640.589" y2="510.079"/>
				
					<line fill="none" stroke="#CCCCCC" stroke-width="1.3922" stroke-miterlimit="10" x1="652.203" y1="507.242" x2="645.373" y2="502.864"/>
				
					<line fill="none" stroke="#CCCCCC" stroke-width="1.3922" stroke-miterlimit="10" x1="656.893" y1="499.67" x2="649.93" y2="495.505"/>
				
					<line fill="none" stroke="#CCCCCC" stroke-width="1.3922" stroke-miterlimit="10" x1="661.346" y1="491.955" x2="654.257" y2="488.009"/>
				
					<line fill="none" stroke="#CCCCCC" stroke-width="1.3922" stroke-miterlimit="10" x1="669.523" y1="476.13" x2="662.203" y2="472.631"/>
				
					<line fill="none" stroke="#CCCCCC" stroke-width="1.3922" stroke-miterlimit="10" x1="673.24" y1="468.035" x2="665.814" y2="464.765"/>
				
					<line fill="none" stroke="#CCCCCC" stroke-width="1.3922" stroke-miterlimit="10" x1="676.703" y1="459.826" x2="669.179" y2="456.79"/>
				
					<line fill="none" stroke="#CCCCCC" stroke-width="1.3922" stroke-miterlimit="10" x1="679.908" y1="451.515" x2="672.293" y2="448.714"/>
				
					<line fill="none" stroke="#CCCCCC" stroke-width="1.3922" stroke-miterlimit="10" x1="665.558" y1="484.106" x2="658.35" y2="480.382"/>
				
					<line fill="none" stroke="#FFFFFF" stroke-width="6.961" stroke-miterlimit="10" x1="697.49" y1="355.604" x2="685.665" y2="355.468"/>
				
					<line fill="none" stroke="#CCCCCC" stroke-width="1.3922" stroke-miterlimit="10" x1="685.533" y1="434.611" x2="677.759" y2="432.291"/>
				
					<line fill="none" stroke="#CCCCCC" stroke-width="1.3922" stroke-miterlimit="10" x1="687.947" y1="426.036" x2="680.104" y2="423.96"/>
				
					<line fill="none" stroke="#CCCCCC" stroke-width="1.3922" stroke-miterlimit="10" x1="690.093" y1="417.39" x2="682.189" y2="415.559"/>
				
					<line fill="none" stroke="#CCCCCC" stroke-width="1.3922" stroke-miterlimit="10" x1="691.968" y1="408.682" x2="684.011" y2="407.098"/>
				
					<line fill="none" stroke="#CCCCCC" stroke-width="1.3922" stroke-miterlimit="10" x1="694.901" y1="391.111" x2="686.86" y2="390.024"/>
				
					<line fill="none" stroke="#CCCCCC" stroke-width="1.3922" stroke-miterlimit="10" x1="695.957" y1="382.268" x2="687.888" y2="381.43"/>
				
					<line fill="none" stroke="#CCCCCC" stroke-width="1.3922" stroke-miterlimit="10" x1="696.74" y1="373.396" x2="688.648" y2="372.807"/>
				
					<line fill="none" stroke="#CCCCCC" stroke-width="1.3922" stroke-miterlimit="10" x1="697.251" y1="364.505" x2="689.145" y2="364.164"/>
				
					<line fill="none" stroke="#CCCCCC" stroke-width="1.3922" stroke-miterlimit="10" x1="693.571" y1="399.919" x2="685.568" y2="398.583"/>
				
					<line fill="none" stroke="#CCCCCC" stroke-width="1.3922" stroke-miterlimit="10" x1="697.462" y1="346.891" x2="689.351" y2="347.038"/>
				
					<line fill="none" stroke="#CCCCCC" stroke-width="1.3922" stroke-miterlimit="10" x1="697.165" y1="337.991" x2="689.063" y2="338.386"/>
				
					<line fill="none" stroke="#CCCCCC" stroke-width="1.3922" stroke-miterlimit="10" x1="696.596" y1="329.104" x2="688.508" y2="329.747"/>
				
					<line fill="none" stroke="#CCCCCC" stroke-width="1.3922" stroke-miterlimit="10" x1="695.753" y1="320.237" x2="687.689" y2="321.129"/>
				
					<line fill="none" stroke="#CCCCCC" stroke-width="1.3922" stroke-miterlimit="10" x1="693.247" y1="302.602" x2="685.254" y2="303.992"/>
				
					<line fill="none" stroke="#CCCCCC" stroke-width="1.3922" stroke-miterlimit="10" x1="691.585" y1="293.852" x2="683.639" y2="295.488"/>
				
					<line fill="none" stroke="#CCCCCC" stroke-width="1.3922" stroke-miterlimit="10" x1="689.651" y1="285.154" x2="681.76" y2="287.039"/>
				
					<line fill="none" stroke="#CCCCCC" stroke-width="1.3922" stroke-miterlimit="10" x1="687.447" y1="276.523" x2="679.618" y2="278.652"/>
				
					<line fill="none" stroke="#CCCCCC" stroke-width="1.3922" stroke-miterlimit="10" x1="694.637" y1="311.4" x2="686.604" y2="312.542"/>
				
					<line fill="none" stroke="#FFFFFF" stroke-width="6.961" stroke-miterlimit="10" x1="687.447" y1="276.523" x2="676.036" y2="279.627"/>
				
					<line fill="none" stroke="#FFFFFF" stroke-width="6.961" stroke-miterlimit="10" x1="651.157" y1="195.56" x2="641.244" y2="202.008"/>
				
					<line fill="none" stroke="#CCCCCC" stroke-width="1.3922" stroke-miterlimit="10" x1="684.976" y1="267.964" x2="677.217" y2="270.337"/>
				
					<line fill="none" stroke="#CCCCCC" stroke-width="1.3922" stroke-miterlimit="10" x1="682.238" y1="259.487" x2="674.558" y2="262.101"/>
				
					<line fill="none" stroke="#CCCCCC" stroke-width="1.3922" stroke-miterlimit="10" x1="679.236" y1="251.099" x2="671.641" y2="253.951"/>
				
					<line fill="none" stroke="#CCCCCC" stroke-width="1.3922" stroke-miterlimit="10" x1="675.975" y1="242.809" x2="668.472" y2="245.896"/>
				
					<line fill="none" stroke="#CCCCCC" stroke-width="1.3922" stroke-miterlimit="10" x1="668.688" y1="226.554" x2="661.391" y2="230.103"/>
				
					<line fill="none" stroke="#CCCCCC" stroke-width="1.3922" stroke-miterlimit="10" x1="664.667" y1="218.605" x2="657.484" y2="222.379"/>
				
					<line fill="none" stroke="#CCCCCC" stroke-width="1.3922" stroke-miterlimit="10" x1="660.402" y1="210.785" x2="653.34" y2="214.779"/>
				
					<line fill="none" stroke="#CCCCCC" stroke-width="1.3922" stroke-miterlimit="10" x1="655.898" y1="203.1" x2="648.964" y2="207.312"/>
				
					<line fill="none" stroke="#CCCCCC" stroke-width="1.3922" stroke-miterlimit="10" x1="672.458" y1="234.625" x2="665.055" y2="237.944"/>
				
					<line fill="none" stroke="#FFFFFF" stroke-width="6.961" stroke-miterlimit="10" x1="591.941" y1="129.502" x2="584.45" y2="138.653"/>
				
					<line fill="none" stroke="#CCCCCC" stroke-width="1.3922" stroke-miterlimit="10" x1="646.186" y1="188.169" x2="639.524" y2="192.801"/>
				
					<line fill="none" stroke="#CCCCCC" stroke-width="1.3922" stroke-miterlimit="10" x1="640.99" y1="180.936" x2="634.475" y2="185.771"/>
				
					<line fill="none" stroke="#CCCCCC" stroke-width="1.3922" stroke-miterlimit="10" x1="635.571" y1="173.867" x2="629.208" y2="178.901"/>
				
					<line fill="none" stroke="#CCCCCC" stroke-width="1.3922" stroke-miterlimit="10" x1="629.938" y1="166.968" x2="623.733" y2="172.196"/>
				
					<line fill="none" stroke="#CCCCCC" stroke-width="1.3922" stroke-miterlimit="10" x1="618.05" y1="153.708" x2="612.179" y2="159.307"/>
				
					<line fill="none" stroke="#CCCCCC" stroke-width="1.3922" stroke-miterlimit="10" x1="611.806" y1="147.357" x2="606.109" y2="153.135"/>
				
					<line fill="none" stroke="#CCCCCC" stroke-width="1.3922" stroke-miterlimit="10" x1="605.369" y1="141.202" x2="599.854" y2="147.152"/>
				
					<line fill="none" stroke="#CCCCCC" stroke-width="1.3922" stroke-miterlimit="10" x1="598.744" y1="135.249" x2="593.414" y2="141.366"/>
				
					<line fill="none" stroke="#CCCCCC" stroke-width="1.3922" stroke-miterlimit="10" x1="624.098" y1="160.246" x2="618.057" y2="165.662"/>
				
					<line fill="none" stroke="#FFFFFF" stroke-width="6.961" stroke-miterlimit="10" x1="515.631" y1="84.615" x2="511.28" y2="95.612"/>
				
					<line fill="none" stroke="#CCCCCC" stroke-width="1.3922" stroke-miterlimit="10" x1="585.114" y1="124.083" x2="580.166" y2="130.513"/>
				
					<line fill="none" stroke="#CCCCCC" stroke-width="1.3922" stroke-miterlimit="10" x1="577.973" y1="118.761" x2="573.226" y2="125.341"/>
				
					<line fill="none" stroke="#CCCCCC" stroke-width="1.3922" stroke-miterlimit="10" x1="570.669" y1="113.662" x2="566.128" y2="120.385"/>
				
					<line fill="none" stroke="#CCCCCC" stroke-width="1.3922" stroke-miterlimit="10" x1="563.213" y1="108.791" x2="558.881" y2="115.651"/>
				
					<line fill="none" stroke="#CCCCCC" stroke-width="1.3922" stroke-miterlimit="10" x1="547.864" y1="99.752" x2="543.966" y2="106.868"/>
				
					<line fill="none" stroke="#CCCCCC" stroke-width="1.3922" stroke-miterlimit="10" x1="539.986" y1="95.594" x2="536.313" y2="102.827"/>
				
					<line fill="none" stroke="#CCCCCC" stroke-width="1.3922" stroke-miterlimit="10" x1="531.983" y1="91.682" x2="528.534" y2="99.025"/>
				
					<line fill="none" stroke="#CCCCCC" stroke-width="1.3922" stroke-miterlimit="10" x1="523.862" y1="88.021" x2="520.644" y2="95.469"/>
				
					<line fill="none" stroke="#CCCCCC" stroke-width="1.3922" stroke-miterlimit="10" x1="555.608" y1="104.152" x2="551.491" y2="111.144"/>
				
					<line fill="none" stroke="#FFFFFF" stroke-width="6.961" stroke-miterlimit="10" x1="429.254" y1="65.18" x2="428.468" y2="76.98"/>
				
					<line fill="none" stroke="#CCCCCC" stroke-width="1.3922" stroke-miterlimit="10" x1="507.476" y1="81.531" x2="504.722" y2="89.163"/>
				
					<line fill="none" stroke="#CCCCCC" stroke-width="1.3922" stroke-miterlimit="10" x1="499.05" y1="78.638" x2="496.536" y2="86.353"/>
				
					<line fill="none" stroke="#CCCCCC" stroke-width="1.3922" stroke-miterlimit="10" x1="490.537" y1="76.011" x2="488.265" y2="83.8"/>
				
					<line fill="none" stroke="#CCCCCC" stroke-width="1.3922" stroke-miterlimit="10" x1="481.947" y1="73.65" x2="479.919" y2="81.506"/>
				
					<line fill="none" stroke="#CCCCCC" stroke-width="1.3922" stroke-miterlimit="10" x1="464.568" y1="69.737" x2="463.033" y2="77.704"/>
				
					<line fill="none" stroke="#CCCCCC" stroke-width="1.3922" stroke-miterlimit="10" x1="455.796" y1="68.188" x2="454.51" y2="76.199"/>
				
					<line fill="none" stroke="#CCCCCC" stroke-width="1.3922" stroke-miterlimit="10" x1="446.98" y1="66.912" x2="445.942" y2="74.958"/>
				
					<line fill="none" stroke="#CCCCCC" stroke-width="1.3922" stroke-miterlimit="10" x1="438.13" y1="65.909" x2="437.342" y2="73.984"/>
				
					<line fill="none" stroke="#CCCCCC" stroke-width="1.3922" stroke-miterlimit="10" x1="473.288" y1="71.559" x2="471.506" y2="79.474"/>
			</g>
		</g>
	</g>
	<g>
		<path fill="#FFFFFF" d="M433.488,90.033c0,1.265-0.101,2.394-0.295,3.387c-0.197,0.993-0.513,1.836-0.943,2.529
			c-0.432,0.693-0.99,1.222-1.672,1.586c-0.682,0.364-1.506,0.546-2.471,0.546c-0.906,0-1.697-0.182-2.369-0.546
			c-0.67-0.365-1.229-0.893-1.672-1.586c-0.441-0.693-0.773-1.536-0.99-2.529c-0.219-0.993-0.328-2.122-0.328-3.387
			c0-1.265,0.1-2.397,0.295-3.397c0.197-1,0.51-1.847,0.938-2.54c0.43-0.693,0.981-1.224,1.661-1.591
			c0.681-0.368,1.5-0.552,2.466-0.552c0.899,0,1.686,0.182,2.356,0.547c0.672,0.364,1.232,0.893,1.685,1.586
			c0.448,0.693,0.784,1.54,1.008,2.54C433.377,87.625,433.488,88.762,433.488,90.033z M426.051,90.033
			c0,1.786,0.152,3.129,0.461,4.03c0.308,0.9,0.838,1.351,1.597,1.351c0.743,0,1.276-0.447,1.602-1.34
			c0.326-0.893,0.488-2.24,0.488-4.041c0-1.793-0.162-3.142-0.488-4.046c-0.324-0.904-0.857-1.356-1.602-1.356
			c-0.38,0-0.697,0.115-0.959,0.343c-0.263,0.228-0.474,0.568-0.638,1.018c-0.166,0.45-0.283,1.013-0.354,1.688
			C426.086,88.356,426.051,89.14,426.051,90.033z"/>
	</g>
	<g>
		<rect x="426.125" y="126.764" fill="none" width="88.869" height="35.773"/>
		<text transform="matrix(1 0 0 1 426.125 140.4434)" fill="#898989" font-family="'DroidSans-Bold'" font-size="18">x1000</text>
	</g>
	
		<line fill="none" stroke="#CCCCCC" stroke-width="2" stroke-miterlimit="10" x1="120.087" y1="330.243" x2="112.125" y2="329.367"/>
	
		<line fill="none" stroke="#CCCCCC" stroke-width="2" stroke-miterlimit="10" x1="129.577" y1="283.074" x2="121.889" y2="280.829"/>
	
		<line fill="none" stroke="#CCCCCC" stroke-width="2" stroke-miterlimit="10" x1="147.114" y1="238.269" x2="139.933" y2="234.724"/>
	<line fill="none" stroke="#CCCCCC" stroke-width="2" stroke-miterlimit="10" x1="172.165" y1="197.19" x2="165.708" y2="192.452"/>
	
		<line fill="none" stroke="#CCCCCC" stroke-width="2" stroke-miterlimit="10" x1="203.969" y1="161.086" x2="198.433" y2="155.298"/>
	
		<line fill="none" stroke="#CCCCCC" stroke-width="2" stroke-miterlimit="10" x1="241.559" y1="131.053" x2="237.111" y2="124.391"/>
	<line fill="none" stroke="#CCCCCC" stroke-width="2" stroke-miterlimit="10" x1="283.793" y1="108.003" x2="280.569" y2="100.67"/>
	
		<line fill="none" stroke="#CCCCCC" stroke-width="2" stroke-miterlimit="10" x1="112.125" y1="329.369" x2="120.086" y2="330.243"/>
	<g>
		<path fill="#FFFFFF" d="M141.891,332.369h-1.888v3.248h-3.226v-3.248h-6.475v-2.304l6.655-10.117h3.044v9.849h1.887v2.572H141.891
			z M136.777,329.797v-2.658c0-0.093,0.002-0.227,0.006-0.401s0.009-0.374,0.017-0.596c0.007-0.222,0.017-0.449,0.026-0.686
			s0.021-0.461,0.031-0.675c0.012-0.214,0.021-0.402,0.033-0.563c0.01-0.161,0.02-0.276,0.025-0.349h-0.096
			c-0.129,0.3-0.273,0.618-0.436,0.954s-0.345,0.672-0.552,1.007l-2.615,3.965h3.56V329.797z"/>
		<path fill="#FFFFFF" d="M154.313,327.783c0,1.265-0.099,2.394-0.295,3.387c-0.195,0.992-0.511,1.836-0.942,2.529
			c-0.433,0.692-0.989,1.221-1.673,1.586c-0.682,0.364-1.506,0.547-2.469,0.547c-0.908,0-1.697-0.183-2.369-0.547
			c-0.672-0.365-1.229-0.894-1.672-1.586c-0.442-0.693-0.773-1.537-0.992-2.529c-0.217-0.994-0.326-2.123-0.326-3.387
			c0-1.265,0.099-2.397,0.295-3.397c0.195-1,0.51-1.847,0.938-2.54c0.43-0.692,0.982-1.224,1.662-1.591
			c0.68-0.368,1.5-0.552,2.465-0.552c0.9,0,1.687,0.182,2.357,0.547c0.672,0.364,1.232,0.893,1.684,1.586
			c0.449,0.693,0.785,1.54,1.008,2.54C154.203,325.375,154.313,326.511,154.313,327.783z M146.875,327.783
			c0,1.786,0.152,3.129,0.461,4.029c0.307,0.9,0.839,1.352,1.598,1.352c0.742,0,1.275-0.446,1.602-1.34
			c0.324-0.894,0.488-2.24,0.488-4.041c0-1.793-0.164-3.143-0.488-4.046c-0.325-0.904-0.858-1.356-1.602-1.356
			c-0.379,0-0.699,0.115-0.959,0.343c-0.263,0.229-0.475,0.568-0.639,1.019c-0.165,0.45-0.283,1.013-0.354,1.688
			C146.911,326.105,146.875,326.89,146.875,327.783z"/>
	</g>
	
		<line fill="none" stroke="#FFFFFF" stroke-width="2" stroke-miterlimit="10" x1="206.482" y1="565.013" x2="213.854" y2="559.956"/>
	<line fill="none" stroke="#D8D8D8" stroke-miterlimit="10" x1="244.867" y1="595.208" x2="250.701" y2="587.823"/>
	<line fill="none" stroke="#D8D8D8" stroke-miterlimit="10" x1="334.996" y1="634.3" x2="336.967" y2="624.441"/>
	
		<line fill="none" stroke="#FFFFFF" stroke-width="2" stroke-miterlimit="10" x1="288.721" y1="619.729" x2="292.838" y2="610.761"/>
	<line fill="none" stroke="#FFFFFF" stroke-width="2" stroke-miterlimit="10" x1="379.09" y1="640.328" x2="379.141" y2="630.32"/>
	<g>
		<path fill="#FFFFFF" d="M232.238,553.094c0,1.265-0.1,2.394-0.295,3.388c-0.196,0.991-0.512,1.836-0.943,2.528
			c-0.432,0.693-0.988,1.222-1.672,1.586c-0.682,0.364-1.506,0.547-2.471,0.547c-0.906,0-1.696-0.183-2.368-0.547
			c-0.671-0.364-1.229-0.893-1.673-1.586c-0.441-0.692-0.772-1.537-0.99-2.528c-0.219-0.994-0.327-2.123-0.327-3.388
			c0-1.266,0.099-2.396,0.295-3.397c0.196-1,0.511-1.847,0.938-2.539c0.429-0.693,0.981-1.226,1.662-1.592
			c0.679-0.368,1.5-0.554,2.465-0.554c0.899,0,1.686,0.184,2.356,0.547c0.673,0.365,1.232,0.895,1.683,1.586
			c0.451,0.693,0.787,1.541,1.009,2.541S232.238,551.822,232.238,553.094z M224.8,553.094c0,1.785,0.153,3.129,0.462,4.029
			c0.307,0.9,0.838,1.351,1.596,1.351c0.744,0,1.276-0.445,1.603-1.34c0.326-0.894,0.488-2.24,0.488-4.04
			c0-1.794-0.163-3.143-0.488-4.047c-0.325-0.903-0.858-1.354-1.603-1.354c-0.379,0-0.697,0.114-0.959,0.344
			c-0.262,0.229-0.474,0.567-0.637,1.018c-0.166,0.45-0.283,1.014-0.354,1.688C224.835,551.416,224.8,552.2,224.8,553.094z"/>
	</g>
	<g>
		<path fill="#FFFFFF" d="M305.754,595.761c0,1.265-0.098,2.394-0.295,3.388c-0.195,0.991-0.51,1.836-0.942,2.528
			c-0.433,0.693-0.989,1.222-1.672,1.586s-1.506,0.547-2.47,0.547c-0.907,0-1.697-0.183-2.369-0.547s-1.229-0.893-1.672-1.586
			c-0.442-0.692-0.773-1.537-0.991-2.528c-0.218-0.994-0.327-2.123-0.327-3.388c0-1.266,0.1-2.396,0.295-3.397
			c0.196-1,0.51-1.847,0.938-2.539c0.43-0.693,0.982-1.226,1.662-1.592c0.68-0.368,1.5-0.554,2.465-0.554
			c0.9,0,1.687,0.184,2.357,0.547c0.672,0.365,1.232,0.895,1.684,1.586c0.449,0.693,0.785,1.541,1.008,2.541
			C305.646,593.353,305.754,594.489,305.754,595.761z M298.316,595.761c0,1.785,0.153,3.129,0.461,4.029
			c0.307,0.9,0.84,1.351,1.598,1.351c0.742,0,1.275-0.445,1.602-1.34c0.326-0.894,0.488-2.24,0.488-4.04
			c0-1.794-0.163-3.143-0.488-4.047c-0.325-0.903-0.857-1.354-1.602-1.354c-0.379,0-0.698,0.114-0.959,0.344
			c-0.262,0.229-0.475,0.567-0.639,1.018s-0.283,1.014-0.354,1.688C298.352,594.083,298.316,594.867,298.316,595.761z"/>
	</g>
	<g>
		<path fill="#FFFFFF" d="M390.26,616.151c0,1.265-0.098,2.394-0.295,3.388c-0.195,0.991-0.51,1.836-0.942,2.528
			c-0.433,0.693-0.989,1.222-1.672,1.586s-1.506,0.547-2.47,0.547c-0.907,0-1.697-0.183-2.369-0.547s-1.229-0.893-1.672-1.586
			c-0.442-0.692-0.773-1.537-0.991-2.528c-0.218-0.994-0.327-2.123-0.327-3.388c0-1.266,0.1-2.396,0.295-3.397
			c0.196-1,0.51-1.847,0.938-2.539c0.43-0.693,0.982-1.226,1.662-1.592c0.68-0.368,1.5-0.554,2.465-0.554
			c0.9,0,1.687,0.184,2.357,0.547c0.672,0.365,1.232,0.895,1.684,1.586c0.449,0.693,0.785,1.541,1.008,2.541
			C390.151,613.743,390.26,614.88,390.26,616.151z M382.822,616.151c0,1.785,0.153,3.129,0.461,4.029
			c0.307,0.9,0.84,1.351,1.598,1.351c0.742,0,1.275-0.445,1.602-1.34c0.326-0.894,0.488-2.24,0.488-4.04
			c0-1.794-0.163-3.143-0.488-4.047c-0.325-0.903-0.857-1.354-1.602-1.354c-0.379,0-0.698,0.114-0.959,0.344
			c-0.262,0.229-0.475,0.567-0.639,1.018s-0.283,1.014-0.354,1.688C382.857,614.474,382.822,615.258,382.822,616.151z"/>
	</g>
	<g>
		<path fill="#FFFFFF" d="M292.77,600.332h-1.888v3.247h-3.226v-3.247h-6.475v-2.305l6.655-10.117h3.044v9.85h1.887v2.572H292.77z
			 M287.657,597.76v-2.658c0-0.093,0.001-0.227,0.005-0.401c0.004-0.174,0.009-0.373,0.018-0.594
			c0.006-0.224,0.016-0.451,0.025-0.688s0.021-0.461,0.031-0.675c0.012-0.215,0.021-0.402,0.033-0.563
			c0.011-0.161,0.02-0.276,0.025-0.35H287.7c-0.13,0.301-0.273,0.619-0.435,0.955c-0.162,0.336-0.346,0.672-0.553,1.007
			l-2.615,3.966L287.657,597.76L287.657,597.76z"/>
	</g>
	<g>
		<path fill="#FFFFFF" d="M372.395,608.092c0.648,0,1.265,0.078,1.842,0.235c0.58,0.157,1.087,0.394,1.523,0.707
			c0.436,0.314,0.781,0.708,1.039,1.179c0.258,0.473,0.385,1.025,0.385,1.662c0,0.471-0.069,0.898-0.213,1.28
			c-0.145,0.382-0.34,0.729-0.59,1.04c-0.25,0.311-0.547,0.588-0.891,0.83c-0.342,0.242-0.713,0.465-1.113,0.664
			c0.414,0.223,0.82,0.469,1.217,0.739c0.397,0.271,0.748,0.576,1.055,0.916c0.308,0.34,0.556,0.722,0.74,1.143
			c0.186,0.421,0.277,0.894,0.277,1.415c0,0.649-0.127,1.238-0.385,1.768s-0.619,0.979-1.082,1.352
			c-0.465,0.371-1.021,0.656-1.668,0.856c-0.647,0.2-1.359,0.3-2.137,0.3c-0.845,0-1.595-0.096-2.252-0.289
			c-0.656-0.192-1.211-0.468-1.66-0.824c-0.451-0.356-0.791-0.797-1.023-1.318s-0.35-1.107-0.35-1.757
			c0-0.537,0.08-1.02,0.235-1.447c0.156-0.428,0.371-0.814,0.644-1.158c0.271-0.342,0.59-0.646,0.955-0.91
			c0.363-0.265,0.754-0.497,1.168-0.696c-0.351-0.222-0.68-0.464-0.986-0.724c-0.307-0.262-0.574-0.551-0.799-0.869
			c-0.225-0.316-0.404-0.67-0.535-1.055c-0.133-0.387-0.199-0.811-0.199-1.275c0-0.622,0.131-1.167,0.393-1.635
			c0.261-0.468,0.611-0.861,1.056-1.18c0.442-0.316,0.953-0.556,1.532-0.712C371.15,608.17,371.758,608.092,372.395,608.092z
			 M370.176,619.795c0,0.285,0.045,0.549,0.139,0.787c0.095,0.24,0.23,0.445,0.412,0.617c0.185,0.171,0.41,0.305,0.683,0.4
			c0.272,0.097,0.586,0.146,0.942,0.146c0.75,0,1.312-0.177,1.683-0.53c0.37-0.353,0.559-0.82,0.559-1.397
			c0-0.302-0.063-0.57-0.188-0.811s-0.285-0.46-0.48-0.664c-0.197-0.204-0.42-0.392-0.67-0.563
			c-0.252-0.171-0.502-0.335-0.752-0.492l-0.234-0.15c-0.313,0.157-0.602,0.327-0.856,0.511c-0.259,0.182-0.478,0.382-0.66,0.6
			c-0.183,0.219-0.322,0.455-0.422,0.713C370.225,619.216,370.176,619.494,370.176,619.795z M372.373,610.514
			c-0.236,0-0.457,0.035-0.66,0.107c-0.203,0.07-0.379,0.175-0.525,0.311c-0.146,0.137-0.262,0.305-0.348,0.504
			s-0.129,0.426-0.129,0.676c0,0.3,0.045,0.56,0.135,0.775c0.088,0.219,0.211,0.412,0.363,0.58c0.154,0.168,0.332,0.317,0.537,0.449
			c0.203,0.133,0.418,0.263,0.648,0.392c0.221-0.113,0.432-0.238,0.631-0.376c0.201-0.135,0.377-0.291,0.531-0.465
			c0.153-0.176,0.276-0.374,0.368-0.596c0.095-0.221,0.142-0.475,0.142-0.761c0-0.25-0.043-0.477-0.129-0.676
			s-0.203-0.367-0.354-0.504c-0.151-0.136-0.33-0.239-0.537-0.311C372.84,610.549,372.615,610.514,372.373,610.514z"/>
	</g>
	<g>
		<path fill="#FFFFFF" d="M511.037,116.897h-3.313v-9.067c0-0.186,0.002-0.409,0.007-0.67c0.004-0.261,0.012-0.532,0.021-0.814
			c0.012-0.282,0.021-0.566,0.033-0.852c0.01-0.286,0.02-0.547,0.024-0.782c-0.034,0.042-0.096,0.107-0.182,0.193
			c-0.086,0.085-0.182,0.18-0.289,0.284c-0.106,0.104-0.219,0.209-0.332,0.316c-0.115,0.107-0.227,0.204-0.332,0.289l-1.801,1.447
			l-1.607-1.994l5.047-4.019h2.724L511.037,116.897L511.037,116.897z"/>
	</g>
	<g>
		<path fill="#FFFFFF" d="M582.307,157h-10.514v-2.304l3.686-3.976c0.466-0.5,0.888-0.961,1.267-1.383
			c0.379-0.421,0.703-0.832,0.975-1.232s0.482-0.807,0.633-1.222c0.151-0.415,0.226-0.861,0.226-1.34
			c0-0.529-0.158-0.939-0.478-1.232c-0.318-0.293-0.743-0.439-1.28-0.439c-0.564,0-1.107,0.139-1.629,0.418
			c-0.522,0.279-1.068,0.675-1.64,1.189l-1.801-2.133c0.32-0.292,0.656-0.573,1.008-0.841c0.351-0.268,0.734-0.505,1.156-0.712
			s0.887-0.374,1.395-0.499c0.507-0.125,1.074-0.188,1.703-0.188c0.75,0,1.424,0.104,2.021,0.311
			c0.598,0.207,1.104,0.502,1.526,0.884c0.423,0.382,0.746,0.845,0.972,1.388c0.225,0.543,0.338,1.154,0.338,1.833
			c0,0.615-0.107,1.202-0.322,1.763s-0.508,1.111-0.879,1.65s-0.801,1.076-1.291,1.607c-0.49,0.533-1.014,1.074-1.57,1.624
			l-1.887,1.897v0.15h6.389V157H582.307z"/>
	</g>
	<g>
		<path fill="#FFFFFF" d="M635.695,202.748c0,0.543-0.088,1.031-0.263,1.463c-0.176,0.432-0.416,0.811-0.719,1.136
			c-0.305,0.325-0.66,0.597-1.072,0.814c-0.409,0.218-0.854,0.384-1.334,0.499v0.064c1.267,0.157,2.224,0.541,2.873,1.152
			c0.648,0.611,0.976,1.435,0.976,2.471c0,0.686-0.123,1.32-0.369,1.902c-0.248,0.582-0.625,1.087-1.137,1.516
			c-0.513,0.429-1.154,0.763-1.931,1.002c-0.775,0.239-1.688,0.359-2.737,0.359c-0.843,0-1.636-0.07-2.38-0.209
			c-0.741-0.139-1.436-0.352-2.077-0.638v-2.819c0.319,0.171,0.659,0.322,1.018,0.45c0.357,0.129,0.715,0.238,1.072,0.327
			c0.354,0.089,0.709,0.155,1.055,0.198c0.346,0.042,0.674,0.064,0.98,0.064c0.614,0,1.125-0.057,1.532-0.171
			c0.406-0.114,0.732-0.275,0.976-0.482c0.244-0.207,0.416-0.455,0.52-0.745c0.104-0.29,0.156-0.605,0.156-0.949
			c0-0.321-0.066-0.612-0.199-0.873c-0.131-0.261-0.346-0.482-0.643-0.665c-0.297-0.183-0.685-0.323-1.162-0.423
			c-0.479-0.1-1.068-0.15-1.771-0.15h-1.112v-2.326h1.092c0.658,0,1.205-0.059,1.641-0.177c0.437-0.118,0.783-0.278,1.045-0.482
			c0.261-0.204,0.445-0.441,0.554-0.713c0.104-0.271,0.159-0.561,0.159-0.868c0-0.557-0.174-0.993-0.52-1.308
			c-0.348-0.314-0.896-0.472-1.646-0.472c-0.342,0-0.662,0.034-0.959,0.102c-0.297,0.068-0.569,0.154-0.823,0.257
			c-0.254,0.104-0.486,0.218-0.697,0.343s-0.402,0.249-0.572,0.37l-1.672-2.208c0.299-0.222,0.627-0.425,0.979-0.611
			c0.354-0.187,0.736-0.349,1.15-0.488c0.416-0.139,0.861-0.248,1.34-0.327c0.479-0.078,0.99-0.118,1.533-0.118
			c0.771,0,1.475,0.084,2.105,0.252c0.633,0.168,1.174,0.411,1.625,0.729c0.448,0.318,0.799,0.708,1.045,1.168
			S635.695,202.155,635.695,202.748z"/>
	</g>
	<g>
		<path fill="#FFFFFF" d="M672.111,286.934h-1.888v3.248h-3.227v-3.248h-6.473v-2.305l6.653-10.117h3.045v9.85h1.888
			L672.111,286.934L672.111,286.934z M666.998,284.359v-2.657c0-0.093,0.002-0.228,0.006-0.402s0.008-0.374,0.016-0.595
			c0.009-0.223,0.017-0.45,0.027-0.686c0.01-0.236,0.021-0.461,0.031-0.676c0.012-0.214,0.021-0.402,0.033-0.563
			c0.01-0.161,0.02-0.277,0.024-0.35h-0.096c-0.129,0.301-0.273,0.618-0.435,0.955c-0.161,0.336-0.346,0.672-0.553,1.006
			l-2.615,3.965h3.561V284.359z"/>
	</g>
	<g>
		<path fill="#FFFFFF" d="M676.434,354.148c0.673,0,1.298,0.104,1.875,0.311c0.578,0.207,1.082,0.512,1.513,0.911
			c0.428,0.399,0.764,0.898,1.008,1.495c0.242,0.597,0.363,1.281,0.363,2.053c0,0.85-0.134,1.613-0.396,2.288
			s-0.654,1.247-1.168,1.715s-1.152,0.827-1.914,1.077c-0.76,0.25-1.633,0.375-2.619,0.375c-0.393,0-0.783-0.018-1.168-0.054
			c-0.387-0.036-0.756-0.087-1.108-0.155c-0.354-0.068-0.689-0.155-1.009-0.263c-0.317-0.106-0.604-0.231-0.862-0.375v-2.862
			c0.25,0.144,0.539,0.277,0.869,0.402c0.327,0.125,0.67,0.231,1.022,0.321c0.354,0.089,0.709,0.16,1.066,0.214
			c0.356,0.055,0.694,0.081,1.018,0.081c0.957,0,1.687-0.198,2.187-0.596c0.5-0.396,0.752-1.027,0.752-1.892
			c0-0.771-0.246-1.358-0.734-1.764c-0.49-0.403-1.246-0.604-2.268-0.604c-0.187,0-0.386,0.011-0.597,0.031
			c-0.209,0.021-0.418,0.051-0.621,0.086c-0.202,0.036-0.397,0.073-0.584,0.112c-0.186,0.039-0.346,0.08-0.481,0.123l-1.318-0.707
			l0.59-7.983h8.273v2.808h-5.4l-0.258,3.075c0.229-0.049,0.494-0.1,0.799-0.149C675.563,354.174,675.955,354.148,676.434,354.148z"
			/>
	</g>
	<g>
		<path fill="#FFFFFF" d="M656.297,437.458c0-0.75,0.041-1.497,0.123-2.239c0.082-0.744,0.229-1.456,0.439-2.139
			c0.211-0.682,0.496-1.316,0.856-1.902c0.361-0.586,0.818-1.095,1.371-1.526c0.555-0.433,1.219-0.771,1.994-1.019
			s1.68-0.37,2.717-0.37c0.15,0,0.314,0.003,0.492,0.012c0.18,0.008,0.359,0.016,0.541,0.026c0.184,0.01,0.359,0.026,0.531,0.047
			c0.172,0.021,0.325,0.047,0.461,0.076v2.646c-0.271-0.064-0.56-0.115-0.863-0.155c-0.303-0.039-0.609-0.06-0.916-0.06
			c-0.965,0-1.758,0.12-2.379,0.358c-0.621,0.24-1.115,0.574-1.479,1.002c-0.364,0.43-0.625,0.943-0.776,1.544
			c-0.154,0.602-0.248,1.266-0.285,1.993h0.129c0.144-0.257,0.316-0.498,0.521-0.723c0.205-0.227,0.44-0.418,0.713-0.579
			c0.271-0.161,0.578-0.288,0.918-0.381c0.338-0.094,0.719-0.141,1.141-0.141c0.678,0,1.289,0.111,1.832,0.332
			c0.543,0.224,1.002,0.544,1.377,0.965c0.375,0.423,0.664,0.939,0.863,1.556c0.199,0.613,0.301,1.317,0.301,2.11
			c0,0.851-0.121,1.611-0.359,2.283c-0.239,0.671-0.579,1.241-1.022,1.709s-0.979,0.825-1.607,1.072
			c-0.629,0.246-1.336,0.369-2.123,0.369c-0.771,0-1.491-0.139-2.163-0.412c-0.673-0.275-1.257-0.695-1.753-1.26
			c-0.497-0.564-0.887-1.277-1.168-2.14C656.438,439.657,656.297,438.637,656.297,437.458z M661.74,441.681
			c0.293,0,0.561-0.056,0.799-0.166c0.24-0.109,0.447-0.277,0.621-0.503c0.176-0.226,0.313-0.51,0.408-0.853
			c0.095-0.343,0.145-0.751,0.145-1.222c0-0.766-0.158-1.367-0.477-1.808c-0.319-0.439-0.804-0.658-1.453-0.658
			c-0.328,0-0.629,0.064-0.9,0.192c-0.271,0.129-0.504,0.297-0.695,0.504c-0.192,0.207-0.342,0.439-0.444,0.696
			c-0.104,0.258-0.156,0.519-0.156,0.783c0,0.362,0.045,0.727,0.135,1.088c0.091,0.359,0.226,0.686,0.408,0.975
			s0.406,0.523,0.674,0.702C661.072,441.591,661.383,441.681,661.74,441.681z"/>
	</g>
	<g>
		<path fill="#FFFFFF" d="M623.133,514.461l5.572-12.86h-7.201v-2.785h10.803v2.077l-5.713,13.568H623.133z"/>
	</g>
	<g>
		<path fill="#FFFFFF" d="M568.859,554.345c0.647,0,1.264,0.079,1.842,0.235c0.58,0.158,1.086,0.394,1.522,0.707
			c0.437,0.314,0.781,0.708,1.039,1.18c0.259,0.472,0.386,1.025,0.386,1.661c0,0.472-0.07,0.898-0.214,1.28
			c-0.145,0.383-0.34,0.729-0.59,1.04s-0.547,0.588-0.891,0.831c-0.342,0.241-0.713,0.465-1.113,0.664
			c0.414,0.222,0.82,0.469,1.217,0.739c0.397,0.271,0.748,0.576,1.056,0.916c0.307,0.339,0.555,0.721,0.739,1.142
			c0.187,0.422,0.277,0.894,0.277,1.415c0,0.649-0.127,1.238-0.385,1.769s-0.619,0.979-1.082,1.35
			c-0.465,0.372-1.021,0.658-1.668,0.857c-0.646,0.201-1.359,0.301-2.138,0.301c-0.844,0-1.594-0.097-2.252-0.289
			c-0.655-0.192-1.211-0.469-1.659-0.826c-0.451-0.355-0.791-0.796-1.023-1.317c-0.231-0.521-0.35-1.107-0.35-1.757
			c0-0.536,0.08-1.02,0.235-1.446c0.156-0.43,0.371-0.815,0.644-1.158c0.271-0.343,0.59-0.646,0.955-0.911
			c0.362-0.265,0.754-0.497,1.168-0.695c-0.351-0.223-0.681-0.463-0.986-0.725c-0.306-0.261-0.574-0.55-0.799-0.868
			c-0.226-0.317-0.404-0.67-0.535-1.056c-0.133-0.386-0.199-0.811-0.199-1.275c0-0.621,0.132-1.167,0.394-1.634
			c0.26-0.469,0.611-0.86,1.055-1.18c0.443-0.317,0.953-0.555,1.533-0.713C567.615,554.424,568.223,554.345,568.859,554.345z
			 M566.641,566.049c0,0.285,0.045,0.548,0.14,0.787c0.094,0.239,0.229,0.445,0.412,0.616c0.184,0.171,0.409,0.306,0.682,0.401
			c0.271,0.098,0.586,0.145,0.943,0.145c0.75,0,1.311-0.176,1.682-0.529c0.371-0.353,0.559-0.819,0.559-1.397
			c0-0.302-0.063-0.57-0.188-0.812c-0.125-0.237-0.285-0.46-0.48-0.664c-0.196-0.203-0.42-0.391-0.67-0.563
			c-0.252-0.172-0.502-0.336-0.752-0.492l-0.233-0.15c-0.314,0.156-0.603,0.326-0.857,0.51c-0.258,0.183-0.477,0.382-0.66,0.601
			c-0.182,0.218-0.322,0.455-0.422,0.713C566.689,565.469,566.641,565.748,566.641,566.049z M568.838,556.767
			c-0.236,0-0.457,0.036-0.66,0.107s-0.379,0.175-0.524,0.312c-0.146,0.136-0.263,0.304-0.349,0.504
			c-0.086,0.199-0.129,0.425-0.129,0.675c0,0.301,0.045,0.56,0.135,0.776c0.089,0.22,0.211,0.411,0.363,0.579
			c0.154,0.168,0.332,0.317,0.537,0.45c0.203,0.132,0.418,0.262,0.648,0.391c0.221-0.112,0.432-0.238,0.631-0.375
			c0.201-0.135,0.377-0.291,0.53-0.466c0.154-0.175,0.277-0.374,0.369-0.595c0.095-0.222,0.142-0.476,0.142-0.762
			c0-0.25-0.043-0.476-0.129-0.676c-0.086-0.199-0.203-0.367-0.354-0.503c-0.15-0.137-0.33-0.239-0.537-0.312
			S569.08,556.767,568.838,556.767z"/>
	</g>
	<g>
		<path fill="#FFFFFF" d="M500.164,599.715c0,0.751-0.041,1.5-0.123,2.246s-0.229,1.459-0.439,2.139
			c-0.211,0.679-0.495,1.313-0.856,1.902s-0.818,1.098-1.373,1.527c-0.553,0.428-1.217,0.766-1.992,1.012
			c-0.774,0.247-1.686,0.37-2.729,0.37c-0.15,0-0.314-0.004-0.492-0.011c-0.18-0.009-0.359-0.017-0.541-0.027
			c-0.185-0.01-0.359-0.024-0.531-0.043s-0.322-0.041-0.449-0.068v-2.658c0.265,0.071,0.547,0.127,0.853,0.166
			c0.303,0.039,0.613,0.06,0.928,0.06c0.963,0,1.756-0.119,2.379-0.359c0.621-0.237,1.113-0.573,1.479-1.007
			c0.365-0.433,0.623-0.948,0.776-1.549c0.152-0.602,0.248-1.261,0.283-1.983h-0.139c-0.144,0.259-0.314,0.498-0.515,0.72
			s-0.438,0.414-0.709,0.577c-0.271,0.165-0.577,0.294-0.922,0.388c-0.342,0.093-0.725,0.139-1.146,0.139
			c-0.679,0-1.289-0.11-1.832-0.332c-0.543-0.221-1.002-0.543-1.377-0.965c-0.375-0.421-0.664-0.939-0.863-1.554
			c-0.199-0.615-0.301-1.318-0.301-2.111c0-0.851,0.121-1.61,0.358-2.282c0.24-0.672,0.58-1.242,1.023-1.71s0.979-0.827,1.613-1.077
			c0.633-0.25,1.342-0.375,2.127-0.375c0.771,0,1.494,0.139,2.166,0.412c0.672,0.275,1.254,0.695,1.746,1.26
			c0.493,0.564,0.883,1.279,1.168,2.145C500.021,597.525,500.164,598.544,500.164,599.715z M494.719,595.504
			c-0.293,0-0.561,0.053-0.803,0.16c-0.244,0.107-0.453,0.273-0.627,0.498c-0.176,0.226-0.312,0.512-0.408,0.856
			c-0.096,0.349-0.145,0.757-0.145,1.229c0,0.758,0.16,1.358,0.481,1.801c0.322,0.443,0.808,0.665,1.457,0.665
			c0.33,0,0.629-0.063,0.9-0.193c0.271-0.129,0.504-0.297,0.696-0.504c0.193-0.207,0.343-0.438,0.445-0.696
			c0.104-0.258,0.154-0.519,0.154-0.781c0-0.365-0.045-0.729-0.133-1.088c-0.09-0.361-0.228-0.688-0.408-0.977
			c-0.182-0.29-0.406-0.522-0.676-0.702C495.389,595.593,495.076,595.504,494.719,595.504z"/>
	</g>
	<g>
		<path fill="#FFFFFF" d="M414.545,621.633h-3.311v-9.065c0-0.187,0.002-0.409,0.006-0.67c0.002-0.262,0.01-0.532,0.021-0.814
			s0.021-0.566,0.031-0.852c0.01-0.286,0.021-0.548,0.027-0.783c-0.037,0.043-0.099,0.106-0.185,0.192
			c-0.084,0.086-0.182,0.181-0.289,0.283c-0.106,0.104-0.217,0.209-0.332,0.316c-0.112,0.106-0.225,0.204-0.332,0.289l-1.801,1.446
			l-1.606-1.992l5.049-4.02h2.721L414.545,621.633L414.545,621.633z"/>
		<path fill="#FFFFFF" d="M429.842,613.799c0,1.266-0.1,2.395-0.295,3.387c-0.197,0.993-0.512,1.837-0.943,2.529
			c-0.431,0.693-0.989,1.223-1.672,1.586c-0.682,0.365-1.506,0.547-2.471,0.547c-0.906,0-1.697-0.182-2.369-0.547
			c-0.67-0.363-1.229-0.893-1.672-1.586c-0.441-0.692-0.772-1.536-0.99-2.529c-0.219-0.992-0.328-2.121-0.328-3.387
			c0-1.265,0.101-2.396,0.296-3.396c0.196-1,0.51-1.848,0.938-2.54c0.43-0.693,0.982-1.225,1.662-1.592s1.5-0.553,2.465-0.553
			c0.9,0,1.687,0.184,2.357,0.547c0.671,0.364,1.231,0.895,1.684,1.587c0.449,0.692,0.785,1.539,1.008,2.539
			C429.73,611.391,429.842,612.527,429.842,613.799z M422.404,613.799c0,1.786,0.151,3.129,0.461,4.029
			c0.307,0.9,0.838,1.352,1.596,1.352c0.744,0,1.277-0.446,1.602-1.34c0.326-0.894,0.488-2.24,0.488-4.041
			c0-1.793-0.162-3.143-0.488-4.046c-0.323-0.903-0.856-1.356-1.602-1.356c-0.379,0-0.697,0.115-0.959,0.345
			c-0.262,0.229-0.473,0.567-0.637,1.018c-0.166,0.451-0.283,1.014-0.355,1.688C422.439,612.121,422.404,612.906,422.404,613.799z"
			/>
	</g>
	<g>
		<g>
			<path fill="#FFFFFF" d="M161.772,235.083c0.648,0,1.265,0.078,1.842,0.235c0.58,0.157,1.087,0.394,1.523,0.707
				c0.436,0.314,0.781,0.708,1.039,1.179c0.258,0.473,0.385,1.025,0.385,1.662c0,0.471-0.069,0.898-0.213,1.28
				c-0.145,0.382-0.34,0.729-0.59,1.04c-0.25,0.311-0.547,0.588-0.891,0.83c-0.342,0.242-0.713,0.465-1.113,0.664
				c0.414,0.223,0.82,0.469,1.217,0.739c0.397,0.271,0.748,0.576,1.055,0.916c0.308,0.34,0.556,0.722,0.74,1.143
				c0.186,0.421,0.277,0.894,0.277,1.415c0,0.649-0.127,1.238-0.385,1.768s-0.619,0.979-1.082,1.352
				c-0.465,0.371-1.021,0.656-1.668,0.856c-0.647,0.2-1.359,0.3-2.137,0.3c-0.845,0-1.595-0.096-2.252-0.289
				c-0.656-0.192-1.211-0.468-1.66-0.824c-0.451-0.356-0.791-0.797-1.023-1.318s-0.35-1.107-0.35-1.757
				c0-0.537,0.08-1.02,0.235-1.447c0.156-0.428,0.371-0.814,0.644-1.158c0.271-0.342,0.59-0.646,0.955-0.91
				c0.363-0.265,0.754-0.497,1.168-0.696c-0.351-0.222-0.68-0.464-0.986-0.724c-0.307-0.262-0.574-0.551-0.799-0.869
				c-0.225-0.316-0.404-0.67-0.535-1.055c-0.133-0.387-0.199-0.811-0.199-1.275c0-0.622,0.131-1.167,0.393-1.635
				c0.261-0.468,0.611-0.861,1.056-1.18c0.442-0.316,0.953-0.556,1.532-0.712C160.528,235.162,161.136,235.083,161.772,235.083z
				 M159.554,246.787c0,0.285,0.045,0.549,0.139,0.787c0.095,0.24,0.23,0.445,0.412,0.617c0.185,0.171,0.41,0.305,0.683,0.4
				c0.272,0.097,0.586,0.146,0.942,0.146c0.75,0,1.312-0.177,1.683-0.53c0.37-0.353,0.559-0.82,0.559-1.397
				c0-0.302-0.063-0.57-0.188-0.811s-0.285-0.46-0.48-0.664c-0.197-0.204-0.42-0.392-0.67-0.563
				c-0.252-0.171-0.502-0.335-0.752-0.492l-0.234-0.15c-0.313,0.157-0.602,0.327-0.856,0.511c-0.259,0.182-0.478,0.382-0.66,0.6
				c-0.183,0.219-0.322,0.455-0.422,0.713C159.603,246.208,159.554,246.486,159.554,246.787z M161.751,237.505
				c-0.236,0-0.457,0.035-0.66,0.107c-0.203,0.07-0.379,0.175-0.525,0.311c-0.146,0.137-0.262,0.305-0.348,0.504
				s-0.129,0.426-0.129,0.676c0,0.3,0.045,0.56,0.135,0.775c0.088,0.219,0.211,0.412,0.363,0.58
				c0.154,0.168,0.332,0.317,0.537,0.449c0.203,0.133,0.418,0.263,0.648,0.392c0.221-0.113,0.432-0.238,0.631-0.376
				c0.201-0.135,0.377-0.291,0.531-0.465c0.153-0.176,0.276-0.374,0.368-0.596c0.095-0.221,0.142-0.475,0.142-0.761
				c0-0.25-0.043-0.477-0.129-0.676s-0.203-0.367-0.354-0.504c-0.151-0.136-0.33-0.239-0.537-0.311
				C162.218,237.541,161.993,237.505,161.751,237.505z"/>
		</g>
		<path fill="#FFFFFF" d="M179.371,243.142c0,1.266-0.099,2.395-0.295,3.387c-0.195,0.994-0.51,1.836-0.942,2.529
			s-0.989,1.223-1.672,1.586c-0.683,0.364-1.507,0.547-2.47,0.547c-0.908,0-1.697-0.183-2.369-0.547
			c-0.672-0.365-1.229-0.893-1.672-1.586s-0.773-1.535-0.992-2.529c-0.217-0.992-0.326-2.121-0.326-3.387
			c0-1.265,0.1-2.396,0.295-3.396s0.51-1.848,0.938-2.54c0.43-0.693,0.982-1.224,1.662-1.591c0.68-0.369,1.5-0.553,2.465-0.553
			c0.9,0,1.687,0.182,2.357,0.547c0.672,0.364,1.232,0.894,1.684,1.586c0.449,0.693,0.785,1.541,1.008,2.541
			C179.262,240.736,179.371,241.872,179.371,243.142z M171.934,243.142c0,1.786,0.153,3.129,0.461,4.03
			c0.307,0.899,0.84,1.351,1.598,1.351c0.742,0,1.275-0.447,1.602-1.34s0.488-2.24,0.488-4.041c0-1.793-0.163-3.142-0.488-4.046
			c-0.325-0.903-0.857-1.356-1.602-1.356c-0.379,0-0.699,0.115-0.959,0.344c-0.263,0.229-0.475,0.568-0.639,1.018
			c-0.165,0.45-0.283,1.014-0.354,1.688C171.97,241.464,171.934,242.25,171.934,243.142z"/>
	</g>
	<g>
		<g>
			<path fill="#FFFFFF" d="M241.047,155.398h-3.313v-9.067c0-0.186,0.002-0.409,0.006-0.67c0.004-0.261,0.012-0.532,0.021-0.814
				c0.01-0.282,0.021-0.566,0.032-0.852c0.01-0.286,0.021-0.547,0.026-0.782c-0.037,0.042-0.098,0.107-0.184,0.193
				c-0.085,0.085-0.182,0.18-0.289,0.284c-0.107,0.104-0.218,0.209-0.332,0.316c-0.113,0.107-0.227,0.204-0.332,0.289l-1.801,1.447
				l-1.607-1.994l5.049-4.019h2.722L241.047,155.398L241.047,155.398z"/>
			<path fill="#FFFFFF" d="M268.979,147.35c0,1.265-0.099,2.394-0.295,3.387s-0.511,1.836-0.942,2.529
				c-0.433,0.693-0.989,1.222-1.672,1.586c-0.683,0.364-1.507,0.546-2.471,0.546c-0.906,0-1.697-0.182-2.369-0.546
				c-0.671-0.365-1.229-0.893-1.672-1.586c-0.441-0.693-0.773-1.536-0.99-2.529c-0.219-0.993-0.328-2.122-0.328-3.387
				c0-1.265,0.1-2.397,0.295-3.397c0.197-1,0.511-1.847,0.938-2.54c0.429-0.693,0.981-1.224,1.662-1.591
				c0.679-0.368,1.5-0.552,2.465-0.552c0.9,0,1.687,0.182,2.356,0.547c0.673,0.364,1.232,0.893,1.684,1.586
				c0.45,0.693,0.786,1.54,1.008,2.54C268.869,144.943,268.979,146.079,268.979,147.35z M261.543,147.35
				c0,1.786,0.152,3.129,0.461,4.03c0.307,0.9,0.839,1.351,1.597,1.351c0.743,0,1.276-0.447,1.603-1.34
				c0.326-0.893,0.488-2.24,0.488-4.041c0-1.793-0.164-3.142-0.488-4.046c-0.325-0.904-0.858-1.356-1.603-1.356
				c-0.379,0-0.698,0.115-0.959,0.343c-0.262,0.229-0.474,0.568-0.638,1.018c-0.165,0.45-0.283,1.013-0.354,1.688
				C261.578,145.672,261.543,146.457,261.543,147.35z"/>
			<path fill="#FFFFFF" d="M256.18,152.15h-1.888v3.248h-3.226v-3.248h-6.475v-2.304l6.655-10.117h3.044v9.849h1.887v2.572H256.18z
				 M251.066,149.578v-2.658c0-0.093,0.002-0.227,0.006-0.401s0.009-0.374,0.017-0.596c0.007-0.222,0.017-0.449,0.026-0.686
				s0.021-0.461,0.031-0.675c0.012-0.214,0.021-0.402,0.033-0.563c0.01-0.161,0.02-0.276,0.025-0.349h-0.096
				c-0.129,0.3-0.273,0.618-0.436,0.954s-0.345,0.672-0.552,1.007l-2.615,3.965h3.56V149.578z"/>
		</g>
		<g>
			<path fill="#FFFFFF" d="M277.634,142.125c0,0.478-0.062,0.902-0.183,1.271s-0.295,0.68-0.522,0.933s-0.504,0.445-0.83,0.577
				c-0.325,0.132-0.692,0.197-1.099,0.197c-0.381,0-0.729-0.066-1.047-0.197c-0.316-0.131-0.592-0.324-0.821-0.577
				c-0.229-0.252-0.411-0.563-0.54-0.933c-0.13-0.369-0.195-0.792-0.195-1.271c0-0.475,0.061-0.897,0.182-1.266
				c0.123-0.369,0.297-0.679,0.523-0.93s0.503-0.441,0.827-0.571s0.69-0.195,1.103-0.195c0.379,0,0.728,0.065,1.045,0.195
				s0.593,0.32,0.822,0.571c0.23,0.251,0.41,0.561,0.54,0.93S277.634,141.649,277.634,142.125z M273.994,142.125
				c0,0.57,0.08,1,0.242,1.289c0.159,0.289,0.422,0.433,0.783,0.433c0.358,0,0.618-0.145,0.778-0.436
				c0.161-0.291,0.241-0.719,0.241-1.286c0-0.57-0.08-0.997-0.241-1.278c-0.16-0.282-0.425-0.423-0.789-0.423
				c-0.358,0-0.617,0.141-0.776,0.423C274.074,141.127,273.994,141.554,273.994,142.125z"/>
			<path fill="#FFFFFF" d="M285.498,143.226c-0.521,0-0.982,0.101-1.385,0.303c-0.401,0.202-0.737,0.492-1.01,0.87
				c-0.273,0.378-0.479,0.838-0.619,1.38c-0.142,0.542-0.211,1.15-0.211,1.824c0,0.686,0.063,1.295,0.188,1.828
				c0.125,0.533,0.318,0.983,0.58,1.349c0.261,0.366,0.595,0.645,1.002,0.835c0.406,0.19,0.893,0.286,1.455,0.286
				c0.521,0,1.043-0.059,1.568-0.176c0.523-0.117,1.094-0.284,1.709-0.501v2.285c-0.281,0.117-0.56,0.217-0.834,0.299
				c-0.275,0.082-0.558,0.149-0.845,0.202c-0.287,0.053-0.582,0.092-0.883,0.119c-0.304,0.026-0.626,0.04-0.972,0.04
				c-0.99,0-1.85-0.158-2.576-0.475c-0.725-0.317-1.326-0.762-1.801-1.336c-0.476-0.574-0.826-1.266-1.056-2.074
				c-0.229-0.808-0.343-1.708-0.343-2.698c0-0.973,0.132-1.865,0.396-2.676c0.264-0.811,0.649-1.51,1.16-2.096
				c0.51-0.586,1.139-1.042,1.889-1.367c0.75-0.325,1.611-0.488,2.584-0.488c0.64,0,1.279,0.081,1.921,0.242
				c0.643,0.161,1.256,0.382,1.842,0.664l-0.879,2.215c-0.479-0.229-0.964-0.428-1.45-0.598S285.968,143.226,285.498,143.226z"/>
		</g>
	</g>
	<path fill="#FF4144" d="M409.771,637.041c0.055,0.001,0.11,0.003,0.165,0.004"/>
	<path fill="#FF4144" d="M409.771,637.041"/>
	<g>
		<path fill="#E5E5E5" d="M318.406,548.791c-0.609,0.123-6.098,4.221-7.588,2.98c-1.489-1.242-3.479-1.987-3.479-1.987h-3.994
			v-2.844h2.336v-0.831h-7.508v0.831h2.335v2.844h-4.592c-5.181,0-4.62,1.883-4.62,4.471c0,3.663,4.371,3.105,4.371,3.105
			c0,2.017,1.282,3.6,3.114,3.6c1.835,0,4.584,0,9.058,0c4.473,0,12.912-12.169,12.912-12.169S319.016,548.666,318.406,548.791z
			 M295.832,555.221c0,0-3.098,1.123-3.098-0.373c0-3.728,0.189-3.523,3.098-3.523V555.221z"/>
		<path fill="#E5E5E5" d="M321.698,552.083c0,1.511-1.577,3.202-1.577,4.073c0,0.872,0.707,1.579,1.577,1.579
			c0.875,0,1.581-0.707,1.581-1.579C323.279,555.285,321.698,551.209,321.698,552.083z"/>
	</g>
	<g>
		<circle fill="#E5E5E5" cx="206.303" cy="252.354" r="3.986"/>
		<g>
			<path fill="#E5E5E5" d="M206.264,261.655c-3.719,0-7.037-2.219-8.478-5.592c-0.765-0.128-2.44-0.119-4.569,1.648
				c-0.863,0.717-1.624-0.05-1.624-0.05l-1.142-1.142c4.759-4.76,8.544-3.089,8.972-2.818c0.333,0.211,0.708,0.801,0.708,0.801
				c0.887,2.633,3.352,4.403,6.133,4.403c2.782,0,5.246-1.771,6.131-4.406l0.27-0.466c0.102-0.116,1.041-1.135,2.838-1.196
				c2.088-0.066,4.438,1.168,6.95,3.683l-1.211,1.211c0,0-0.61,0.861-1.556-0.046c-2.09-1.853-3.436-2.114-4.093-2.1
				c-0.346,0.012-0.594,0.108-0.731,0.179C213.493,259.304,210.09,261.655,206.264,261.655z"/>
		</g>
		<rect x="204.753" y="238.013" fill="#E5E5E5" width="3.185" height="14.259"/>
		<rect x="207.479" y="238.951" fill="#E5E5E5" width="3.459" height="1.04"/>
		<rect x="207.3" y="244.951" fill="#E5E5E5" width="3.458" height="1.04"/>
		<rect x="207.479" y="241.951" fill="#E5E5E5" width="3.459" height="1.039"/>
	</g>
	<path opacity="0.51" fill="#E89820" enable-background="new    " d="M508.469,635.549c59.736-20.174,111.174-58.814,147.164-109.09
		l-12.512-8.179c-8.916,12.389-18.865,24.082-29.801,35.021c-25.982,25.98-56.232,46.377-89.912,60.622
		c-6.662,2.817-13.219,5.305-20.033,7.591L508.469,635.549z"/>
</g>
</svg>
