<?xml version="1.0" encoding="UTF-8" standalone="no"?>
<!-- Generator: IcoMoon.io -->

<svg
   xmlns:dc="http://purl.org/dc/elements/1.1/"
   xmlns:cc="http://creativecommons.org/ns#"
   xmlns:rdf="http://www.w3.org/1999/02/22-rdf-syntax-ns#"
   xmlns:svg="http://www.w3.org/2000/svg"
   xmlns="http://www.w3.org/2000/svg"
   xmlns:sodipodi="http://sodipodi.sourceforge.net/DTD/sodipodi-0.dtd"
   xmlns:inkscape="http://www.inkscape.org/namespaces/inkscape"
   version="1.1"
   id="Layer_1"
   x="0px"
   y="0px"
   width="48px"
   height="48px"
   viewBox="0 0 48 48"
   enable-background="new 0 0 16 16"
   xml:space="preserve"
   fill="#000000"
   inkscape:version="0.48.4 r9939"
   sodipodi:docname="clone-window.svg"><metadata
     id="metadata9"><rdf:RDF><cc:Work
         rdf:about=""><dc:format>image/svg+xml</dc:format><dc:type
           rdf:resource="http://purl.org/dc/dcmitype/StillImage" /></cc:Work></rdf:RDF></metadata><defs
     id="defs7" /><sodipodi:namedview
     pagecolor="#ffffff"
     bordercolor="#666666"
     borderopacity="1"
     objecttolerance="10"
     gridtolerance="10"
     guidetolerance="10"
     inkscape:pageopacity="0"
     inkscape:pageshadow="2"
     inkscape:window-width="706"
     inkscape:window-height="480"
     id="namedview5"
     showgrid="false"
     inkscape:zoom="4.9166667"
     inkscape:cx="24"
     inkscape:cy="24"
     inkscape:window-x="0"
     inkscape:window-y="27"
     inkscape:window-maximized="0"
     inkscape:current-layer="Layer_1" /><path
     d="M 42.00,38.448L42.00,15.00 c0.00-4.971-4.029-9.00-9.00-9.00L9.552,6.00 C 10.791,2.511, 14.085,0.00, 18.00,0.00l21.00,0.00 c 4.971,0.00, 9.00,4.029, 9.00,9.00l0.00,21.00 C 48.00,33.915, 45.486,37.209, 42.00,38.448z M 39.00,18.00l0.00,21.00 c0.00,4.971-4.029,9.00-9.00,9.00L9.00,48.00 c-4.971,0.00-9.00-4.029-9.00-9.00L0.00,18.00 c0.00-4.971, 4.029-9.00, 9.00-9.00l21.00,0.00 C 34.971,9.00, 39.00,13.029, 39.00,18.00z M 6.00,39.00c0.00,1.659, 1.341,3.00, 3.00,3.00l21.00,0.00 c 1.659,0.00, 3.00-1.341, 3.00-3.00L33.00,21.00 L6.00,21.00 L6.00,39.00 z M 9.00,12.00C 7.341,12.00, 6.00,13.344, 6.00,15.00 s 1.341,3.00, 3.00,3.00s 3.00-1.344, 3.00-3.00S 10.659,12.00, 9.00,12.00z"
     id="path3"
     style="fill:#ececec" /></svg>