<?xml version="1.0" encoding="iso-8859-1"?>
<!-- Generator: Adobe Illustrator 19.0.0, SVG Export Plug-In . SVG Version: 6.00 Build 0)  -->
<svg xmlns="http://www.w3.org/2000/svg" xmlns:xlink="http://www.w3.org/1999/xlink" version="1.1" id="Layer_1" x="0px" y="0px" viewBox="0 0 512 512" style="enable-background:new 0 0 512 512;" xml:space="preserve" width="512px" height="512px">
<g>
	<g>
		<path d="M224.98,255.988L394.488,86.48c9.571-9.571,14.843-22.297,14.843-35.831c0-13.535-5.271-26.26-14.843-35.831    c-19.758-19.756-51.904-19.758-71.662,0l-205.34,205.34c-19.757,19.757-19.757,51.904,0,71.662l205.34,205.339    c9.571,9.571,22.295,14.842,35.83,14.842c13.535,0,26.26-5.271,35.831-14.841c9.571-9.571,14.843-22.296,14.843-35.831    c0-13.535-5.271-26.26-14.843-35.831L224.98,255.988z M380.062,482.734c-5.717,5.718-13.321,8.867-21.406,8.867    c-8.085,0-15.688-3.149-21.405-8.867l-205.34-205.339c-11.803-11.804-11.803-31.01,0-42.813l205.341-205.34    c5.901-5.901,13.653-8.853,21.405-8.853c7.752,0,15.505,2.952,21.405,8.854c5.718,5.718,8.868,13.32,8.868,21.406    s-3.15,15.689-8.868,21.407l-176.719,176.72c-3.983,3.984-3.983,10.442,0,14.425l176.719,176.721    c5.718,5.718,8.868,13.321,8.868,21.406C388.929,469.413,385.78,477.016,380.062,482.734z" fill="#FFFFFF"/>
	</g>
</g>
<g>
	<g>
		<path d="M175.503,219.486c-3.955-4.014-10.413-4.059-14.424-0.105l-14.248,14.043c-4.013,3.954-4.06,10.413-0.105,14.424    c1.996,2.025,4.631,3.039,7.265,3.039c2.586,0,5.172-0.977,7.159-2.934l14.248-14.043    C179.411,229.956,179.458,223.498,175.503,219.486z" fill="#FFFFFF"/>
	</g>
</g>
<g>
	<g>
		<path d="M359.702,37.694c-3.955-4.013-10.415-4.057-14.424-0.104L187.835,192.773c-4.012,3.954-4.058,10.413-0.104,14.424    c1.996,2.025,4.631,3.039,7.265,3.039c2.585,0,5.172-0.977,7.159-2.935L359.597,52.119    C363.61,48.164,363.657,41.707,359.702,37.694z" fill="#FFFFFF"/>
	</g>
</g>
<g>
</g>
<g>
</g>
<g>
</g>
<g>
</g>
<g>
</g>
<g>
</g>
<g>
</g>
<g>
</g>
<g>
</g>
<g>
</g>
<g>
</g>
<g>
</g>
<g>
</g>
<g>
</g>
<g>
</g>
</svg>
