<?xml version="1.0" encoding="UTF-8" standalone="no"?>
<!-- Created with Inkscape (http://www.inkscape.org/) -->

<svg
   xmlns:dc="http://purl.org/dc/elements/1.1/"
   xmlns:cc="http://creativecommons.org/ns#"
   xmlns:rdf="http://www.w3.org/1999/02/22-rdf-syntax-ns#"
   xmlns:svg="http://www.w3.org/2000/svg"
   xmlns="http://www.w3.org/2000/svg"
   xmlns:sodipodi="http://sodipodi.sourceforge.net/DTD/sodipodi-0.dtd"
   xmlns:inkscape="http://www.inkscape.org/namespaces/inkscape"
   width="117.88396"
   height="125.38922"
   id="svg2"
   version="1.1"
   inkscape:version="0.48.4 r9939"
   sodipodi:docname="jc-design.svg">
  <defs
     id="defs4" />
  <sodipodi:namedview
     id="base"
     pagecolor="#ffffff"
     bordercolor="#666666"
     borderopacity="1.0"
     inkscape:pageopacity="0.0"
     inkscape:pageshadow="2"
     inkscape:zoom="1.76"
     inkscape:cx="-77.36436"
     inkscape:cy="74.326652"
     inkscape:document-units="px"
     inkscape:current-layer="layer1"
     showgrid="false"
     inkscape:window-width="1920"
     inkscape:window-height="988"
     inkscape:window-x="0"
     inkscape:window-y="28"
     inkscape:window-maximized="1"
     fit-margin-top="0"
     fit-margin-left="0"
     fit-margin-right="0"
     fit-margin-bottom="0" />
  <metadata
     id="metadata7">
    <rdf:RDF>
      <cc:Work
         rdf:about="">
        <dc:format>image/svg+xml</dc:format>
        <dc:type
           rdf:resource="http://purl.org/dc/dcmitype/StillImage" />
        <dc:title></dc:title>
      </cc:Work>
    </rdf:RDF>
  </metadata>
  <g
     inkscape:label="Layer 1"
     inkscape:groupmode="layer"
     id="layer1"
     transform="translate(-436.48886,-271.35209)">
    <path
       sodipodi:type="arc"
       style="fill:#ffffff;fill-opacity:1;stroke:#ffffff;stroke-width:1;stroke-miterlimit:4;stroke-opacity:1;stroke-dasharray:none"
       id="path2994"
       sodipodi:cx="348.86365"
       sodipodi:cy="377.93036"
       sodipodi:rx="13.636364"
       sodipodi:ry="13.636364"
       d="m 362.50001,377.93036 c 0,7.53115 -6.10521,13.63636 -13.63636,13.63636 -7.53116,0 -13.63637,-6.10521 -13.63637,-13.63636 0,-7.53116 6.10521,-13.63637 13.63637,-13.63637 7.53115,0 13.63636,6.10521 13.63636,13.63637 z"
       transform="matrix(0.93129992,0.36425329,-0.36425329,0.93129992,353.00009,-193.54438)" />
    <rect
       style="fill:#ffffff;fill-opacity:1;stroke:#ffffff;stroke-width:1;stroke-linejoin:round;stroke-miterlimit:4;stroke-opacity:1;stroke-dasharray:none"
       id="rect3766"
       width="19.318184"
       height="67.61367"
       x="596.31799"
       y="91.260147"
       ry="7.9545455"
       transform="matrix(0.93129992,0.36425329,-0.36425329,0.93129992,0,0)" />
    <rect
       style="fill:#ffffff;fill-opacity:1;stroke:#ffffff;stroke-width:1;stroke-linejoin:round;stroke-miterlimit:4;stroke-opacity:1;stroke-dasharray:none"
       id="rect3766-9"
       width="19.318184"
       height="67.61367"
       x="547.45435"
       y="138.70332"
       ry="7.9545455"
       transform="matrix(0.93129992,0.36425329,-0.36425329,0.93129992,0,0)" />
    <rect
       style="fill:#ffffff;fill-opacity:1;stroke:#ffffff;stroke-width:1;stroke-linejoin:round;stroke-miterlimit:4;stroke-opacity:1;stroke-dasharray:none"
       id="rect3766-9-8"
       width="19.318184"
       height="67.61367"
       x="136.12538"
       y="-615.50867"
       ry="7.9545455"
       transform="matrix(-0.36883376,0.92949538,-0.92949538,-0.36883376,0,0)" />
    <g
       id="g3820"
       transform="matrix(-0.82766434,0.8182189,-0.8182189,-0.82766434,1158.2401,351.9619)">
      <rect
         style="fill:none;stroke:#ffffff;stroke-width:4.67351437;stroke-miterlimit:4;stroke-opacity:1;stroke-dasharray:none"
         id="rect3804"
         width="2.1628489"
         height="31.708302"
         x="49.80513"
         y="-609.76263"
         transform="matrix(-0.70710678,0.70710678,-0.70710678,-0.70710678,0,0)" />
      <rect
         style="fill:none;stroke:#ffffff;stroke-width:2.2935307;stroke-miterlimit:4;stroke-opacity:1;stroke-dasharray:none"
         id="rect3806"
         width="1.1869745"
         height="13.914886"
         x="-441.9614"
         y="369.45569"
         transform="matrix(-7.1254443e-4,-0.99999975,0.99999975,7.1254443e-4,0,0)" />
      <rect
         style="fill:none;stroke:#ffffff;stroke-width:2.2935307;stroke-miterlimit:4;stroke-opacity:1;stroke-dasharray:none"
         id="rect3808"
         width="1.1869745"
         height="13.914886"
         x="-370.77206"
         y="440.64502"
         transform="matrix(-0.99999975,-7.1254443e-4,7.1254443e-4,0.99999975,0,0)"
         inkscape:transform-center-y="-18.526514" />
      <rect
         style="fill:none;stroke:#ffffff;stroke-width:2.25711226;stroke-miterlimit:4;stroke-opacity:1;stroke-dasharray:none"
         id="rect3814"
         width="13.67016"
         height="1.1701585"
         x="-58.421757"
         y="582.6308"
         transform="matrix(0.70710678,-0.70710678,0.70710678,0.70710678,0,0)" />
      <rect
         style="fill:none;stroke:#ffffff;stroke-width:2.25711226;stroke-miterlimit:4;stroke-opacity:1;stroke-dasharray:none"
         id="rect3816"
         width="13.67016"
         height="1.1701585"
         x="-56.149021"
         y="582.6308"
         transform="matrix(0.70710678,-0.70710678,0.70710678,0.70710678,0,0)" />
      <rect
         style="fill:none;stroke:#ffffff;stroke-width:1.82554889;stroke-miterlimit:4;stroke-opacity:1;stroke-dasharray:none"
         id="rect3818"
         width="10.124452"
         height="1.0335402"
         x="-55.228447"
         y="580.14227"
         transform="matrix(0.70710678,-0.70710678,0.70710678,0.70710678,0,0)" />
    </g>
    <g
       transform="matrix(-0.82846927,-0.81740388,0.81740388,-0.82846927,395.74557,998.23228)"
       id="g3845">
      <rect
         transform="matrix(-0.70710678,0.70710678,-0.70710678,-0.70710678,0,0)"
         y="-609.76263"
         x="49.80513"
         height="31.708302"
         width="2.1628489"
         id="rect3847"
         style="fill:none;stroke:#ffffff;stroke-width:4.67351437;stroke-miterlimit:4;stroke-opacity:1;stroke-dasharray:none" />
      <rect
         transform="matrix(-7.1254443e-4,-0.99999975,0.99999975,7.1254443e-4,0,0)"
         y="369.45569"
         x="-441.9614"
         height="13.914886"
         width="1.1869745"
         id="rect3849"
         style="fill:none;stroke:#ffffff;stroke-width:2.2935307;stroke-miterlimit:4;stroke-opacity:1;stroke-dasharray:none" />
      <rect
         inkscape:transform-center-y="-18.526514"
         transform="matrix(-0.99999975,-7.1254443e-4,7.1254443e-4,0.99999975,0,0)"
         y="440.64502"
         x="-370.77206"
         height="13.914886"
         width="1.1869745"
         id="rect3851"
         style="fill:none;stroke:#ffffff;stroke-width:2.2935307;stroke-miterlimit:4;stroke-opacity:1;stroke-dasharray:none" />
      <rect
         transform="matrix(0.70710678,-0.70710678,0.70710678,0.70710678,0,0)"
         y="582.6308"
         x="-58.421757"
         height="1.1701585"
         width="13.67016"
         id="rect3853"
         style="fill:none;stroke:#ffffff;stroke-width:2.25711226;stroke-miterlimit:4;stroke-opacity:1;stroke-dasharray:none" />
      <rect
         transform="matrix(0.70710678,-0.70710678,0.70710678,0.70710678,0,0)"
         y="582.6308"
         x="-56.149021"
         height="1.1701585"
         width="13.67016"
         id="rect3855"
         style="fill:none;stroke:#ffffff;stroke-width:2.25711226;stroke-miterlimit:4;stroke-opacity:1;stroke-dasharray:none" />
      <rect
         transform="matrix(0.70710678,-0.70710678,0.70710678,0.70710678,0,0)"
         y="580.14227"
         x="-55.228447"
         height="1.0335402"
         width="10.124452"
         id="rect3857"
         style="fill:none;stroke:#ffffff;stroke-width:1.82554889;stroke-miterlimit:4;stroke-opacity:1;stroke-dasharray:none" />
    </g>
  </g>
</svg>
