<?xml version="1.0" encoding="UTF-8" standalone="no"?>
<!-- Created with Inkscape (http://www.inkscape.org/) -->

<svg
   xmlns:dc="http://purl.org/dc/elements/1.1/"
   xmlns:cc="http://creativecommons.org/ns#"
   xmlns:rdf="http://www.w3.org/1999/02/22-rdf-syntax-ns#"
   xmlns:svg="http://www.w3.org/2000/svg"
   xmlns="http://www.w3.org/2000/svg"
   xmlns:sodipodi="http://sodipodi.sourceforge.net/DTD/sodipodi-0.dtd"
   xmlns:inkscape="http://www.inkscape.org/namespaces/inkscape"
   width="99.762512"
   height="123.81068"
   id="svg2"
   version="1.1"
   inkscape:version="0.48.4 r9939"
   sodipodi:docname="jc-design.svg">
  <defs
     id="defs4" />
  <sodipodi:namedview
     id="base"
     pagecolor="#ffffff"
     bordercolor="#666666"
     borderopacity="1.0"
     inkscape:pageopacity="0.0"
     inkscape:pageshadow="2"
     inkscape:zoom="1.2445079"
     inkscape:cx="-150.92788"
     inkscape:cy="102.05209"
     inkscape:document-units="px"
     inkscape:current-layer="layer1"
     showgrid="false"
     inkscape:window-width="1920"
     inkscape:window-height="988"
     inkscape:window-x="0"
     inkscape:window-y="28"
     inkscape:window-maximized="1"
     fit-margin-top="0"
     fit-margin-left="0"
     fit-margin-right="0"
     fit-margin-bottom="0"
     borderlayer="false" />
  <metadata
     id="metadata7">
    <rdf:RDF>
      <cc:Work
         rdf:about="">
        <dc:format>image/svg+xml</dc:format>
        <dc:type
           rdf:resource="http://purl.org/dc/dcmitype/StillImage" />
        <dc:title></dc:title>
      </cc:Work>
    </rdf:RDF>
  </metadata>
  <g
     inkscape:label="Layer 1"
     inkscape:groupmode="layer"
     id="layer1"
     transform="translate(-456.61373,-447.4457)">
    <path
       style="fill:none;stroke:#ffffff;stroke-width:3.8920002;stroke-linejoin:round;stroke-miterlimit:4;stroke-opacity:1;stroke-dasharray:none"
       d="m 109.3125,178.03125 c -4.16636,-0.0209 -8.32162,3.01734 -10.15625,7.8125 l -24.9375,65.125 L 30,251.1875 c -4.406762,0.0222 -7.959681,3.59324 -7.9375,8 l 0.03125,3.40625 c 0.02218,4.40676 3.593238,7.92843 8,7.90625 l 51.6875,-0.25 c 3.855917,-0.0194 7.06023,-2.74004 7.78125,-6.375 0.384772,-0.65024 0.717749,-1.32478 1,-2.0625 l 26.5,-69.25 c 2.25801,-5.90173 0.0889,-12.14357 -4.875,-14 -0.93074,-0.34808 -1.91353,-0.52642 -2.875,-0.53125 z"
       transform="translate(436.48886,271.35209)"
       id="rect3906"
       inkscape:connector-curvature="0" />
    <g
       id="g3032"
       transform="matrix(0.23413344,0.12509078,-0.1394598,0.24216474,452.82059,344.16414)">
      <rect
         style="fill:#4f3721;fill-opacity:1;stroke:#ffbb50;stroke-width:6.315588;stroke-miterlimit:4;stroke-opacity:1;stroke-dasharray:none"
         id="rect4038"
         width="9.7092667"
         height="12.898916"
         x="-434.22998"
         y="-627.96973"
         transform="matrix(-0.99999986,5.3051837e-4,-0.03241715,-0.99947443,0,0)" />
      <rect
         style="fill:#4f3721;fill-opacity:1;stroke:#ffbb50;stroke-width:5.42035437;stroke-miterlimit:4;stroke-opacity:1;stroke-dasharray:none"
         id="rect4040"
         width="2.8052044"
         height="32.885376"
         x="-115.79556"
         y="743.84552"
         transform="matrix(0.70311787,-0.71107332,0.71007059,0.7041305,0,0)" />
      <rect
         inkscape:transform-center-x="41.078588"
         style="fill:#4f3721;fill-opacity:1;stroke:#ffbb50;stroke-width:5.42035437;stroke-miterlimit:4;stroke-opacity:1;stroke-dasharray:none"
         id="rect4042"
         width="2.8052044"
         height="32.885376"
         x="-746.95642"
         y="112.6845"
         transform="matrix(-0.71007059,-0.7041305,-0.70311787,0.71107332,0,0)"
         inkscape:transform-center-y="-93.465873" />
      <rect
         style="fill:#4f3721;fill-opacity:1;stroke:#ffbb50;stroke-width:5.33428574;stroke-miterlimit:4;stroke-opacity:1;stroke-dasharray:none"
         id="rect4044"
         width="32.307007"
         height="2.7654629"
         x="426.79175"
         y="628.29327"
         transform="matrix(0.99998793,-0.00491282,0.00491282,0.99998793,0,0)" />
      <rect
         style="fill:#4f3721;fill-opacity:1;stroke:#ffbb50;stroke-width:5.33428574;stroke-miterlimit:4;stroke-opacity:1;stroke-dasharray:none"
         id="rect4046"
         width="32.307007"
         height="2.7654629"
         x="432.1629"
         y="628.29327"
         transform="matrix(0.99998793,-0.00491282,0.00491282,0.99998793,0,0)" />
      <rect
         style="fill:#4f3721;fill-opacity:1;stroke:#ffbb50;stroke-width:4.31436253;stroke-miterlimit:4;stroke-opacity:1;stroke-dasharray:none"
         id="rect4048"
         width="23.927351"
         height="2.4425895"
         x="434.33875"
         y="622.41205"
         transform="matrix(0.99998793,-0.00491282,0.00491282,0.99998793,0,0)" />
      <rect
         transform="matrix(-0.99999538,0.00304038,-0.00565935,-0.99998399,0,0)"
         y="-693.93878"
         x="-449.9451"
         height="69.291656"
         width="9.105587"
         id="rect3030"
         style="fill:#ffbb50;fill-opacity:1;stroke:#ffbb50;stroke-width:14.17550182;stroke-miterlimit:4;stroke-opacity:1;stroke-dasharray:none" />
    </g>
    <g
       transform="matrix(0.23413344,0.12509078,-0.1394598,0.24216474,477.74791,344.16414)"
       id="g3041"
       inkscape:transform-center-x="9.1015598"
       inkscape:transform-center-y="0.011069058">
      <rect
         transform="matrix(-0.99999986,5.3051837e-4,-0.03241715,-0.99947443,0,0)"
         y="-627.96973"
         x="-434.22998"
         height="12.898916"
         width="9.7092667"
         id="rect3043"
         style="fill:#4f3721;fill-opacity:1;stroke:#ffbb50;stroke-width:6.315588;stroke-miterlimit:4;stroke-opacity:1;stroke-dasharray:none" />
      <rect
         transform="matrix(0.70311787,-0.71107332,0.71007059,0.7041305,0,0)"
         y="743.84552"
         x="-115.79556"
         height="32.885376"
         width="2.8052044"
         id="rect3045"
         style="fill:#4f3721;fill-opacity:1;stroke:#ffbb50;stroke-width:5.42035437;stroke-miterlimit:4;stroke-opacity:1;stroke-dasharray:none" />
      <rect
         inkscape:transform-center-y="-93.465873"
         transform="matrix(-0.71007059,-0.7041305,-0.70311787,0.71107332,0,0)"
         y="112.6845"
         x="-746.95642"
         height="32.885376"
         width="2.8052044"
         id="rect3047"
         style="fill:#4f3721;fill-opacity:1;stroke:#ffbb50;stroke-width:5.42035437;stroke-miterlimit:4;stroke-opacity:1;stroke-dasharray:none"
         inkscape:transform-center-x="41.078588" />
      <rect
         transform="matrix(0.99998793,-0.00491282,0.00491282,0.99998793,0,0)"
         y="628.29327"
         x="426.79175"
         height="2.7654629"
         width="32.307007"
         id="rect3049"
         style="fill:#4f3721;fill-opacity:1;stroke:#ffbb50;stroke-width:5.33428574;stroke-miterlimit:4;stroke-opacity:1;stroke-dasharray:none" />
      <rect
         transform="matrix(0.99998793,-0.00491282,0.00491282,0.99998793,0,0)"
         y="628.29327"
         x="432.1629"
         height="2.7654629"
         width="32.307007"
         id="rect3051"
         style="fill:#4f3721;fill-opacity:1;stroke:#ffbb50;stroke-width:5.33428574;stroke-miterlimit:4;stroke-opacity:1;stroke-dasharray:none" />
      <rect
         transform="matrix(0.99998793,-0.00491282,0.00491282,0.99998793,0,0)"
         y="622.41205"
         x="434.33875"
         height="2.4425895"
         width="23.927351"
         id="rect3053"
         style="fill:#4f3721;fill-opacity:1;stroke:#ffbb50;stroke-width:4.31436253;stroke-miterlimit:4;stroke-opacity:1;stroke-dasharray:none" />
      <rect
         style="fill:#ffbb50;fill-opacity:1;stroke:#ffbb50;stroke-width:14.17550182;stroke-miterlimit:4;stroke-opacity:1;stroke-dasharray:none"
         id="rect3055"
         width="9.105587"
         height="69.291656"
         x="-449.9451"
         y="-693.93878"
         transform="matrix(-0.99999538,0.00304038,-0.00565935,-0.99998399,0,0)" />
    </g>
    <g
       inkscape:transform-center-x="9.1015627"
       id="g3057"
       transform="matrix(0.23413344,0.12509078,-0.1394598,0.24216474,502.67521,344.16414)"
       inkscape:transform-center-y="0.011069058">
      <rect
         style="fill:#4f3721;fill-opacity:1;stroke:#ffbb50;stroke-width:6.315588;stroke-miterlimit:4;stroke-opacity:1;stroke-dasharray:none"
         id="rect3059"
         width="9.7092667"
         height="12.898916"
         x="-434.22998"
         y="-627.96973"
         transform="matrix(-0.99999986,5.3051837e-4,-0.03241715,-0.99947443,0,0)" />
      <rect
         style="fill:#4f3721;fill-opacity:1;stroke:#ffbb50;stroke-width:5.42035437;stroke-miterlimit:4;stroke-opacity:1;stroke-dasharray:none"
         id="rect3061"
         width="2.8052044"
         height="32.885376"
         x="-115.79556"
         y="743.84552"
         transform="matrix(0.70311787,-0.71107332,0.71007059,0.7041305,0,0)" />
      <rect
         inkscape:transform-center-x="41.078588"
         style="fill:#4f3721;fill-opacity:1;stroke:#ffbb50;stroke-width:5.42035437;stroke-miterlimit:4;stroke-opacity:1;stroke-dasharray:none"
         id="rect3063"
         width="2.8052044"
         height="32.885376"
         x="-746.95642"
         y="112.6845"
         transform="matrix(-0.71007059,-0.7041305,-0.70311787,0.71107332,0,0)"
         inkscape:transform-center-y="-93.465873" />
      <rect
         style="fill:#4f3721;fill-opacity:1;stroke:#ffbb50;stroke-width:5.33428574;stroke-miterlimit:4;stroke-opacity:1;stroke-dasharray:none"
         id="rect3065"
         width="32.307007"
         height="2.7654629"
         x="426.79175"
         y="628.29327"
         transform="matrix(0.99998793,-0.00491282,0.00491282,0.99998793,0,0)" />
      <rect
         style="fill:#4f3721;fill-opacity:1;stroke:#ffbb50;stroke-width:5.33428574;stroke-miterlimit:4;stroke-opacity:1;stroke-dasharray:none"
         id="rect3067"
         width="32.307007"
         height="2.7654629"
         x="432.1629"
         y="628.29327"
         transform="matrix(0.99998793,-0.00491282,0.00491282,0.99998793,0,0)" />
      <rect
         style="fill:#4f3721;fill-opacity:1;stroke:#ffbb50;stroke-width:4.31436253;stroke-miterlimit:4;stroke-opacity:1;stroke-dasharray:none"
         id="rect3069"
         width="23.927351"
         height="2.4425895"
         x="434.33875"
         y="622.41205"
         transform="matrix(0.99998793,-0.00491282,0.00491282,0.99998793,0,0)" />
      <rect
         transform="matrix(-0.99999538,0.00304038,-0.00565935,-0.99998399,0,0)"
         y="-693.93878"
         x="-449.9451"
         height="69.291656"
         width="9.105587"
         id="rect3071"
         style="fill:#ffbb50;fill-opacity:1;stroke:#ffbb50;stroke-width:14.17550182;stroke-miterlimit:4;stroke-opacity:1;stroke-dasharray:none" />
    </g>
  </g>
</svg>
