<?xml version="1.0" encoding="iso-8859-1"?>
<!-- Generator: Adobe Illustrator 19.1.0, SVG Export Plug-In . SVG Version: 6.00 Build 0)  -->
<svg xmlns="http://www.w3.org/2000/svg" xmlns:xlink="http://www.w3.org/1999/xlink" version="1.1" id="Capa_1" x="0px" y="0px" viewBox="0 0 64 64" style="enable-background:new 0 0 64 64;" xml:space="preserve" width="512px" height="512px">
<g>
	<g>
		<path d="M30.295,30l4.763,13.336l1.884-0.672L21.705,0h-2.409L4.058,42.664l1.884,0.672L10.705,30H30.295z M20.5,2.573L29.581,28    H11.419L20.5,2.573z" fill="#FFFFFF"/>
		<path d="M49.289,7l-8.233,23.672l1.889,0.656L45.146,25h10.709l2.201,6.328l1.889-0.656L51.711,7H49.289z M45.841,23L50.5,9.606    L55.159,23H45.841z" fill="#FFFFFF"/>
		<rect x="2" y="46" width="36" height="2" fill="#FFFFFF"/>
		<rect x="40" y="34" width="22" height="2" fill="#FFFFFF"/>
		<polygon points="52,64 52,42.414 57.293,47.707 58.707,46.146 51.707,39 50.293,39 43.293,46.146 44.707,47.634 50,42.414 50,64       " fill="#FFFFFF"/>
	</g>
</g>
<g>
</g>
<g>
</g>
<g>
</g>
<g>
</g>
<g>
</g>
<g>
</g>
<g>
</g>
<g>
</g>
<g>
</g>
<g>
</g>
<g>
</g>
<g>
</g>
<g>
</g>
<g>
</g>
<g>
</g>
</svg>
